<svg width="299" height="274" viewBox="0 0 299 274" fill="none" xmlns="http://www.w3.org/2000/svg">
<g opacity="0.6" filter="url(#filter0_b_820_29811)">
<path d="M190.939 24.0977L190.939 110.49C190.939 114.182 188.988 117.599 185.807 119.474L94.4767 173.34C92.7383 174.366 90.5443 173.112 90.5443 171.094L90.544 70.2128C90.544 65.5978 92.9836 61.3266 96.9587 58.9821L173.243 13.9903C181.066 9.37663 190.939 15.016 190.939 24.0977Z" fill="white" fill-opacity="0.8"/>
<path d="M189.417 24.0977L189.417 110.49C189.417 113.643 187.75 116.561 185.034 118.163L93.7033 172.029C92.9798 172.456 92.0665 171.934 92.0665 171.094L92.0662 70.2127C92.0662 66.1366 94.221 62.3641 97.732 60.2933L174.017 15.3015C180.824 11.2863 189.417 16.1942 189.417 24.0977Z" stroke="white" stroke-opacity="0.7" stroke-width="3.04452"/>
</g>
<path opacity="0.4" d="M90.5359 221.025L149.209 187.17C154.862 183.909 161.827 183.913 167.475 187.182L226.161 221.147C231.371 224.162 231.366 231.685 226.152 234.693L167.479 268.547C161.826 271.809 154.862 271.805 149.213 268.535L90.527 234.571C85.3172 231.556 85.3221 224.033 90.5359 221.025Z" fill="#002EA6"/>
<g filter="url(#filter1_b_820_29811)">
<path d="M74.9263 202.184L148.625 159.768C154.269 156.519 161.217 156.524 166.857 159.78L240.567 202.332C245.787 205.345 245.782 212.881 240.558 215.887L166.859 258.304C161.215 261.552 154.268 261.548 148.628 258.292L74.9174 215.74C69.6977 212.726 69.7027 205.191 74.9263 202.184Z" fill="white" fill-opacity="0.3"/>
<path d="M149.438 161.18L75.7393 203.597C71.6039 205.977 71.6 211.943 75.7323 214.328L149.443 256.88C154.579 259.846 160.906 259.85 166.046 256.891L239.745 214.475C243.88 212.094 243.884 206.129 239.752 203.743L166.042 161.191C160.905 158.226 154.578 158.222 149.438 161.18Z" stroke="#002EA6" stroke-opacity="0.1" stroke-width="3.25959"/>
</g>
<path fill-rule="evenodd" clip-rule="evenodd" d="M153.897 65.8668C160.082 69.438 168.222 66.9195 172.078 60.2415C175.933 53.5636 174.045 45.255 167.859 41.6838C161.674 38.1126 153.534 40.6312 149.678 47.3091C145.823 53.987 147.711 62.2956 153.897 65.8668ZM146.048 72.0401C139.971 74.4433 128.127 89.1639 124.14 96.9056C119.673 105.577 126.349 112.708 132.672 119.463L132.672 119.463C134.065 120.951 135.44 122.42 136.676 123.884C137.999 125.451 140.28 125.929 142.003 124.93L141.977 125.444L129.542 160.202C128.897 162.004 128.52 163.892 128.424 165.804L126.613 201.684C126.497 203.972 128.321 205.891 130.612 205.891C132.471 205.891 134.085 204.612 134.51 202.802L142.723 167.843L152.113 145.56L155.736 146.043L161.604 180.595L170.942 219.085C171.602 221.804 174.602 223.222 177.122 222.007C178.768 221.213 179.751 219.483 179.59 217.663L175.946 176.357L171.301 139.212L171.522 134.784C172.241 134.739 172.96 134.517 173.611 134.104L189.966 123.73C196.871 119.35 200.328 111.05 196.544 103.801C190.947 93.0766 181.953 81.6971 174.378 77.3679L174.378 77.3668C174.232 77.2812 174.066 77.1894 173.883 77.0922C173.349 76.8034 172.842 76.5563 172.36 76.3487C168.88 74.7588 162.667 72.51 156.532 71.5206C151.195 70.6598 147.855 71.2541 146.048 72.0401ZM143.582 92.5515C139.238 95.7792 134.494 100.383 134.494 100.383L142.367 117.467L143.582 92.5515ZM173.256 99.9236L172.045 124.273C177.808 119.858 184.223 114.545 184.223 111.828C184.223 108.966 178.481 103.872 173.256 99.9236Z" fill="url(#paint0_linear_820_29811)"/>
<g filter="url(#filter2_b_820_29811)">
<path d="M256.782 130.908L256.783 162.015C256.783 168.538 253.302 174.565 247.653 177.825L198.109 206.42C192.894 209.43 186.376 205.666 186.376 199.645L186.376 168.537C186.376 162.015 189.856 155.988 195.505 152.727L245.049 124.132C250.264 121.122 256.782 124.886 256.782 130.908Z" fill="white" fill-opacity="0.8"/>
<path d="M255.153 130.908L255.153 162.015C255.153 167.955 251.983 173.444 246.839 176.413L197.295 205.008C193.166 207.391 188.006 204.412 188.006 199.645L188.005 168.537C188.005 162.597 191.175 157.108 196.319 154.139L245.864 125.544C249.992 123.161 255.153 126.141 255.153 130.908Z" stroke="#002EA6" stroke-opacity="0.1" stroke-width="3.25959"/>
</g>
<g filter="url(#filter3_b_820_29811)">
<path d="M40.999 70.9827L40.9989 155.54C40.9989 162.04 44.4562 168.051 50.0758 171.319L123.771 214.178C128.986 217.211 135.526 213.448 135.526 207.415L135.527 122.858C135.527 116.358 132.069 110.347 126.45 107.079L52.7549 64.2202C47.5396 61.1872 40.9991 64.9496 40.999 70.9827Z" fill="#C672B8"/>
<path d="M42.6288 70.9827L42.6287 155.54C42.6287 161.46 45.7773 166.934 50.8952 169.91L124.59 212.769C128.719 215.17 133.897 212.191 133.897 207.415L133.897 122.858C133.897 116.938 130.748 111.464 125.631 108.488L51.9356 65.6291C47.8068 63.2279 42.6288 66.2065 42.6288 70.9827Z" stroke="#002EA6" stroke-opacity="0.1" stroke-width="3.25959"/>
</g>
<path d="M113.89 124.321L64.4334 95.4492C62.2604 94.1807 59.5305 95.7481 59.5305 98.2642V120.609C59.5305 122.91 60.7435 125.041 62.7223 126.215L110.698 154.69C112.677 155.864 113.89 157.995 113.89 160.296V179.986C113.89 182.479 111.206 184.049 109.033 182.827L56.5361 153.309" stroke="white" stroke-width="5.21534"/>
<path d="M121.186 127.426L110.67 112.713C110.301 112.197 109.487 112.458 109.487 113.092V130.469C109.487 130.915 109.925 131.229 110.348 131.086L121.186 127.426Z" fill="white"/>
<path d="M54.6895 147.817C54.6895 146.808 55.7852 146.182 56.6544 146.693L57.3925 147.127C58.3881 147.713 58.9994 148.782 58.9994 149.937V159.882C58.9994 160.89 57.9037 161.517 57.0345 161.005L56.2964 160.571C55.3008 159.986 54.6895 158.917 54.6895 157.762V147.817Z" fill="white"/>
<g opacity="0.6" filter="url(#filter4_b_820_29811)">
<path d="M230.055 149.633L230.055 116.607C230.055 115.209 230.802 113.917 232.014 113.218L238.532 109.461C240.27 108.459 242.442 109.714 242.442 111.721L242.442 144.747C242.442 146.145 241.695 147.437 240.484 148.136L233.965 151.893C232.227 152.895 230.055 151.64 230.055 149.633Z" fill="white"/>
</g>
<g filter="url(#filter5_b_820_29811)">
<path d="M209.193 208.958L209.193 162.893C209.193 161.494 209.94 160.202 211.151 159.504L217.67 155.747C219.408 154.745 221.58 156 221.58 158.007L221.58 204.071C221.58 205.47 220.833 206.762 219.621 207.46L213.103 211.217C211.365 212.219 209.193 210.964 209.193 208.958Z" fill="white"/>
</g>
<g opacity="0.3" filter="url(#filter6_b_820_29811)">
<path d="M201.371 135.35L201.371 128.6C201.371 127.186 202.134 125.882 203.367 125.189L205.961 123.732C207.699 122.756 209.846 124.012 209.846 126.006L209.846 132.756C209.846 134.17 209.082 135.474 207.849 136.166L205.255 137.623C203.517 138.599 201.371 137.343 201.371 135.35Z" fill="white"/>
</g>
<defs>
<filter id="filter0_b_820_29811" x="84.4549" y="6.25636" width="112.573" height="173.539" filterUnits="userSpaceOnUse" color-interpolation-filters="sRGB">
<feFlood flood-opacity="0" result="BackgroundImageFix"/>
<feGaussianBlur in="BackgroundImageFix" stdDeviation="3.04452"/>
<feComposite in2="SourceAlpha" operator="in" result="effect1_backgroundBlur_820_29811"/>
<feBlend mode="normal" in="SourceGraphic" in2="effect1_backgroundBlur_820_29811" result="shape"/>
</filter>
<filter id="filter1_b_820_29811" x="64.4867" y="150.815" width="186.511" height="116.441" filterUnits="userSpaceOnUse" color-interpolation-filters="sRGB">
<feFlood flood-opacity="0" result="BackgroundImageFix"/>
<feGaussianBlur in="BackgroundImageFix" stdDeviation="3.25959"/>
<feComposite in2="SourceAlpha" operator="in" result="effect1_backgroundBlur_820_29811"/>
<feBlend mode="normal" in="SourceGraphic" in2="effect1_backgroundBlur_820_29811" result="shape"/>
</filter>
<filter id="filter2_b_820_29811" x="179.856" y="116.554" width="83.4456" height="97.4443" filterUnits="userSpaceOnUse" color-interpolation-filters="sRGB">
<feFlood flood-opacity="0" result="BackgroundImageFix"/>
<feGaussianBlur in="BackgroundImageFix" stdDeviation="3.25959"/>
<feComposite in2="SourceAlpha" operator="in" result="effect1_backgroundBlur_820_29811"/>
<feBlend mode="normal" in="SourceGraphic" in2="effect1_backgroundBlur_820_29811" result="shape"/>
</filter>
<filter id="filter3_b_820_29811" x="34.4799" y="56.6288" width="107.566" height="165.14" filterUnits="userSpaceOnUse" color-interpolation-filters="sRGB">
<feFlood flood-opacity="0" result="BackgroundImageFix"/>
<feGaussianBlur in="BackgroundImageFix" stdDeviation="3.25959"/>
<feComposite in2="SourceAlpha" operator="in" result="effect1_backgroundBlur_820_29811"/>
<feBlend mode="normal" in="SourceGraphic" in2="effect1_backgroundBlur_820_29811" result="shape"/>
</filter>
<filter id="filter4_b_820_29811" x="223.967" y="103.02" width="24.5643" height="55.3138" filterUnits="userSpaceOnUse" color-interpolation-filters="sRGB">
<feFlood flood-opacity="0" result="BackgroundImageFix"/>
<feGaussianBlur in="BackgroundImageFix" stdDeviation="3.04452"/>
<feComposite in2="SourceAlpha" operator="in" result="effect1_backgroundBlur_820_29811"/>
<feBlend mode="normal" in="SourceGraphic" in2="effect1_backgroundBlur_820_29811" result="shape"/>
</filter>
<filter id="filter5_b_820_29811" x="203.104" y="149.306" width="24.5643" height="68.3522" filterUnits="userSpaceOnUse" color-interpolation-filters="sRGB">
<feFlood flood-opacity="0" result="BackgroundImageFix"/>
<feGaussianBlur in="BackgroundImageFix" stdDeviation="3.04452"/>
<feComposite in2="SourceAlpha" operator="in" result="effect1_backgroundBlur_820_29811"/>
<feBlend mode="normal" in="SourceGraphic" in2="effect1_backgroundBlur_820_29811" result="shape"/>
</filter>
<filter id="filter6_b_820_29811" x="195.282" y="117.306" width="20.6532" height="26.7445" filterUnits="userSpaceOnUse" color-interpolation-filters="sRGB">
<feFlood flood-opacity="0" result="BackgroundImageFix"/>
<feGaussianBlur in="BackgroundImageFix" stdDeviation="3.04452"/>
<feComposite in2="SourceAlpha" operator="in" result="effect1_backgroundBlur_820_29811"/>
<feBlend mode="normal" in="SourceGraphic" in2="effect1_backgroundBlur_820_29811" result="shape"/>
</filter>
<linearGradient id="paint0_linear_820_29811" x1="198.109" y1="63.2037" x2="134.222" y2="43.3206" gradientUnits="userSpaceOnUse">
<stop stop-color="#0B3087"/>
<stop offset="1" stop-color="#113FAF"/>
</linearGradient>
</defs>
</svg>
