<svg width="488" height="447" viewBox="0 0 488 447" fill="none" xmlns="http://www.w3.org/2000/svg">
<path opacity="0.4" d="M112.019 371.735L195.663 323.473C203.722 318.823 213.65 318.83 221.702 323.49L305.364 371.909C312.791 376.207 312.784 386.932 305.351 391.221L221.707 439.483C213.649 444.133 203.72 444.126 195.668 439.466L112.006 391.047C104.579 386.749 104.586 376.024 112.019 371.735Z" fill="#002EA6"/>
<g opacity="0.6" filter="url(#filter0_b_820_28361)">
<path d="M72.9997 240.644V285.761C72.9997 287.746 71.945 289.581 70.2301 290.579L38.6258 308.988C36.1475 310.431 33.0373 308.644 33.0373 305.776L33.0372 260.659C33.0372 258.674 34.092 256.839 35.8068 255.841L67.4112 237.432C69.8895 235.988 72.9997 237.776 72.9997 240.644Z" fill="white" fill-opacity="0.8"/>
<path d="M70.8296 240.644V285.761C70.8296 286.973 70.1853 288.094 69.1379 288.704L37.5336 307.113C36.502 307.714 35.2074 306.969 35.2074 305.776L35.2073 260.659C35.2073 259.447 35.8516 258.326 36.8991 257.716L68.5035 239.307C69.535 238.706 70.8296 239.45 70.8296 240.644Z" stroke="#002EA6" stroke-opacity="0.1" stroke-width="4.34021"/>
</g>
<g opacity="0.2" filter="url(#filter1_b_820_28361)">
<path d="M132.479 141.188V177.872C132.479 179.86 131.42 181.698 129.7 182.696L60.9245 222.575C58.4462 224.013 55.3423 222.224 55.3423 219.36L55.3422 182.676C55.3422 180.687 56.401 178.849 58.1212 177.852L126.897 137.972C129.375 136.535 132.479 138.323 132.479 141.188Z" fill="white" fill-opacity="0.8"/>
<path d="M130.309 141.188V177.872C130.309 179.086 129.662 180.209 128.611 180.818L59.8359 220.698C58.8044 221.296 57.5124 220.552 57.5124 219.36L57.5123 182.676C57.5123 181.461 58.1591 180.338 59.2098 179.729L127.985 139.849C129.017 139.251 130.309 139.995 130.309 141.188Z" stroke="#002EA6" stroke-opacity="0.1" stroke-width="4.34021"/>
</g>
<g filter="url(#filter2_b_820_28361)">
<path d="M262.589 50.3663V184.433C262.589 192.998 258.055 200.923 250.672 205.263L125.171 279.048C112.78 286.333 97.1633 277.398 97.1633 263.025L97.163 133.89C97.163 127.302 100.65 121.206 106.33 117.867L241.583 38.3489C250.877 32.8853 262.589 39.5861 262.589 50.3663Z" fill="#8FA2E0"/>
<path d="M260.419 50.3663V184.433C260.419 192.229 256.292 199.442 249.572 203.393L124.071 277.177C113.127 283.611 99.3334 275.72 99.3334 263.025L99.3331 133.89C99.3331 128.071 102.413 122.687 107.43 119.737L242.683 40.2197C250.53 35.6066 260.419 41.2642 260.419 50.3663Z" stroke="#002EA6" stroke-opacity="0.1" stroke-width="4.34021"/>
</g>
<g filter="url(#filter3_b_820_28361)">
<path d="M89.7692 345.805L194.833 285.337C202.879 280.706 212.783 280.712 220.823 285.354L325.903 346.016C333.344 350.311 333.337 361.054 325.89 365.34L220.827 425.808C212.781 430.439 202.877 430.433 194.837 425.791L89.7565 365.129C82.3154 360.834 82.3225 350.091 89.7692 345.805Z" fill="white" fill-opacity="0.3"/>
<path d="M195.992 287.351L90.9282 347.819C85.0328 351.212 85.0273 359.716 90.9182 363.117L195.998 423.779C203.321 428.006 212.34 428.012 219.668 423.794L324.731 363.326C330.627 359.933 330.632 351.428 324.742 348.028L219.662 287.366C212.339 283.139 203.32 283.133 195.992 287.351Z" stroke="white" stroke-opacity="0.1" stroke-width="4.6468"/>
</g>
<path d="M296.776 158.265C301.04 155.65 306.684 157.514 309.102 162.125C311.52 166.737 309.796 172.35 305.532 174.964L305.531 174.965L304.288 175.728C303.487 176.22 302.333 176.931 300.917 177.803C298.085 179.549 294.213 181.942 290.046 184.534C284.479 187.997 275.463 193.377 268.687 197.509C263.845 200.462 257.719 200.641 252.798 197.822L229.599 184.534V234.643L238.893 264.028L248.542 287.416C249.262 289.162 249.643 291.029 249.664 292.918L250.09 330.346C250.552 335.451 249.632 341.513 246.37 342.886C241.802 344.809 237.392 341.027 236.612 337.31L228.404 297.23C228.158 296.029 227.765 294.864 227.233 293.76L212.913 264.028L205.436 267.143L193.643 318.711C193.479 319.427 193.262 320.13 192.995 320.814L173.179 371.461C170.779 379.065 169.539 381.709 164.738 382.782C159.937 383.855 154.98 380.923 155.795 375.347L167.556 319.787L178.949 248.091L176.203 196.08L159.042 211.682C156.922 213.609 155.404 216.107 154.671 218.876L146.929 248.091C145.535 255.526 141.978 259.708 136.241 259.708C130.504 259.708 128.806 251.809 130.105 245.432L138.131 206.945C138.543 204.967 139.352 203.096 140.527 201.452C144.56 195.808 154.565 182.026 160.869 175.24C168.913 166.581 172.021 160.267 189.679 154.16L212.913 148.971C220.813 147.72 227.957 150.694 233.547 153.479L255.098 171.794C259.425 175.471 265.483 176.378 270.476 173.673C273.889 171.824 277.33 169.855 281.195 167.893C285.387 165.285 289.281 162.879 292.126 161.125C293.549 160.248 294.71 159.533 295.516 159.038C295.919 158.79 296.234 158.597 296.447 158.466L296.776 158.265Z" fill="#002EA6"/>
<ellipse cx="22.4667" cy="24.2553" rx="22.4667" ry="24.2553" transform="matrix(-0.866025 0.5 0.5 0.866025 217.862 86.4094)" fill="#002EA6"/>
<path d="M255.766 177.07C255.828 174.595 257.314 172.085 259.543 170.626C269.242 164.279 296.304 146.051 318.452 126.237C320.552 124.357 323.306 123.714 325.516 124.506C333.258 127.278 352.838 132.99 378.188 130.901C381.432 130.633 383.921 132.892 383.839 136.215L382.187 202.868C382.067 207.69 381.482 212.588 379.95 217.452C377.098 226.507 371.092 242.347 360.774 255.671C352.911 265.825 327.457 291.138 319.729 298.603C318.319 299.965 316.587 300.513 314.975 300.139C307.514 298.406 285.272 292.599 271.633 282.166C263.842 276.756 258.175 268.617 255.266 258.802C254.098 254.861 253.911 250.518 254.022 246.146L255.766 177.07Z" fill="#FE975C"/>
<path opacity="0.6" d="M299.764 262.056L366.009 296.708" stroke="white" stroke-width="19.5166" stroke-linecap="round"/>
<path opacity="0.2" d="M415.933 283.433L454.966 303.879" stroke="white" stroke-width="19.5166" stroke-linecap="round"/>
<path d="M333.22 192.355L442.884 249.975" stroke="white" stroke-width="19.5166" stroke-linecap="round"/>
<defs>
<filter id="filter0_b_820_28361" x="24.3568" y="228.241" width="57.3234" height="89.9384" filterUnits="userSpaceOnUse" color-interpolation-filters="sRGB">
<feFlood flood-opacity="0" result="BackgroundImageFix"/>
<feGaussianBlur in="BackgroundImageFix" stdDeviation="4.34021"/>
<feComposite in2="SourceAlpha" operator="in" result="effect1_backgroundBlur_820_28361"/>
<feBlend mode="normal" in="SourceGraphic" in2="effect1_backgroundBlur_820_28361" result="shape"/>
</filter>
<filter id="filter1_b_820_28361" x="46.6617" y="128.784" width="94.4977" height="102.979" filterUnits="userSpaceOnUse" color-interpolation-filters="sRGB">
<feFlood flood-opacity="0" result="BackgroundImageFix"/>
<feGaussianBlur in="BackgroundImageFix" stdDeviation="4.34021"/>
<feComposite in2="SourceAlpha" operator="in" result="effect1_backgroundBlur_820_28361"/>
<feBlend mode="normal" in="SourceGraphic" in2="effect1_backgroundBlur_820_28361" result="shape"/>
</filter>
<filter id="filter2_b_820_28361" x="88.4825" y="27.7244" width="182.787" height="262.596" filterUnits="userSpaceOnUse" color-interpolation-filters="sRGB">
<feFlood flood-opacity="0" result="BackgroundImageFix"/>
<feGaussianBlur in="BackgroundImageFix" stdDeviation="4.34021"/>
<feComposite in2="SourceAlpha" operator="in" result="effect1_backgroundBlur_820_28361"/>
<feBlend mode="normal" in="SourceGraphic" in2="effect1_backgroundBlur_820_28361" result="shape"/>
</filter>
<filter id="filter3_b_820_28361" x="74.8863" y="272.575" width="265.887" height="165.996" filterUnits="userSpaceOnUse" color-interpolation-filters="sRGB">
<feFlood flood-opacity="0" result="BackgroundImageFix"/>
<feGaussianBlur in="BackgroundImageFix" stdDeviation="4.6468"/>
<feComposite in2="SourceAlpha" operator="in" result="effect1_backgroundBlur_820_28361"/>
<feBlend mode="normal" in="SourceGraphic" in2="effect1_backgroundBlur_820_28361" result="shape"/>
</filter>
</defs>
</svg>
