<svg width="279" height="256" viewBox="0 0 279 256" fill="none" xmlns="http://www.w3.org/2000/svg">
<path opacity="0.4" d="M64.0435 212.529L111.864 184.937C116.472 182.278 122.148 182.282 126.752 184.946L174.583 212.628C178.829 215.086 178.825 221.217 174.575 223.669L126.755 251.262C122.147 253.92 116.471 253.916 111.867 251.252L64.0363 223.57C59.7901 221.112 59.7941 214.981 64.0435 212.529Z" fill="#002EA6"/>
<g opacity="0.6" filter="url(#filter0_b_820_29504)">
<path d="M41.7353 137.581V163.376C41.7353 164.51 41.1323 165.559 40.1519 166.13L22.083 176.655C20.6662 177.48 18.888 176.458 18.888 174.819L18.8879 149.024C18.8879 147.89 19.491 146.841 20.4714 146.27L38.5403 135.745C39.9572 134.92 41.7353 135.942 41.7353 137.581Z" fill="white" fill-opacity="0.8"/>
<path d="M40.4946 137.581V163.376C40.4946 164.069 40.1263 164.71 39.5274 165.058L21.4586 175.583L22.083 176.655L21.4586 175.583C20.8688 175.926 20.1287 175.501 20.1287 174.819L20.1286 149.024C20.1286 148.331 20.497 147.69 21.0958 147.342L39.1647 136.817C39.7545 136.474 40.4946 136.899 40.4946 137.581Z" stroke="#002EA6" stroke-opacity="0.1" stroke-width="2.48139"/>
</g>
<g opacity="0.2" filter="url(#filter1_b_820_29504)">
<path d="M75.7409 80.7201V101.693C75.7409 102.83 75.1356 103.881 74.1521 104.451L34.8317 127.251C33.4148 128.073 31.6402 127.05 31.6402 125.413L31.6401 104.44C31.6401 103.303 32.2455 102.252 33.229 101.682L72.5495 78.8815C73.9664 78.0599 75.7409 79.0822 75.7409 80.7201Z" fill="white" fill-opacity="0.8"/>
<path d="M74.5002 80.7201V101.693C74.5002 102.387 74.1305 103.029 73.5298 103.378L34.2093 126.178C33.6196 126.52 32.8809 126.094 32.8809 125.413L32.8808 104.44C32.8808 103.745 33.2506 103.103 33.8513 102.755L73.1718 79.9548C73.7616 79.6128 74.5002 80.0383 74.5002 80.7201Z" stroke="#002EA6" stroke-opacity="0.1" stroke-width="2.48139"/>
</g>
<g filter="url(#filter2_b_820_29504)">
<path d="M150.128 28.7955V105.444C150.128 110.341 147.536 114.872 143.314 117.353L71.5627 159.538C64.4786 163.702 55.5503 158.594 55.5502 150.377L55.5501 76.5476C55.5501 72.781 57.5439 69.2958 60.791 67.3868L138.118 21.9249C143.431 18.8012 150.128 22.6322 150.128 28.7955Z" fill="#8FA2E0"/>
<path d="M148.887 28.7955V105.444C148.887 109.901 146.528 114.025 142.686 116.284L70.9339 158.468C64.6769 162.147 56.7909 157.635 56.7909 150.377L56.7908 76.5476C56.7907 73.2208 58.5518 70.1425 61.4198 68.4564L138.747 22.9944C143.233 20.357 148.887 23.5916 148.887 28.7955Z" stroke="#002EA6" stroke-opacity="0.1" stroke-width="2.48139"/>
</g>
<g filter="url(#filter3_b_820_29504)">
<path d="M51.323 197.704L111.39 163.133C115.99 160.486 121.653 160.489 126.249 163.143L186.326 197.824C190.58 200.28 190.576 206.422 186.318 208.873L126.252 243.444C121.651 246.091 115.989 246.087 111.392 243.434L51.3157 208.752C47.0615 206.296 47.0655 200.155 51.323 197.704Z" fill="white" fill-opacity="0.3"/>
<path d="M112.053 164.284L51.9856 198.855C48.6151 200.795 48.6119 205.658 51.9798 207.602L112.056 242.283C116.243 244.7 121.4 244.703 125.589 242.292L185.656 207.721C189.026 205.781 189.03 200.919 185.662 198.975L125.585 164.293C121.399 161.877 116.242 161.873 112.053 164.284Z" stroke="white" stroke-opacity="0.1" stroke-width="2.65667"/>
</g>
<path d="M169.673 90.4832C172.111 88.9882 175.338 90.054 176.72 92.6906C178.103 95.3271 177.117 98.536 174.679 100.031L174.678 100.031L173.968 100.468C173.51 100.749 172.85 101.155 172.041 101.654C170.422 102.652 168.208 104.02 165.826 105.502C162.643 107.482 157.488 110.557 153.614 112.92C150.845 114.609 147.344 114.711 144.53 113.099L131.267 105.502V134.15L136.58 150.95L142.096 164.322C142.508 165.32 142.726 166.387 142.738 167.467L142.982 188.866C143.246 191.785 142.72 195.25 140.855 196.035C138.243 197.135 135.722 194.973 135.276 192.847L130.583 169.933C130.443 169.246 130.218 168.58 129.914 167.949L121.727 150.95L117.452 152.731L110.709 182.214C110.616 182.623 110.492 183.025 110.339 183.416L99.0102 212.372C97.6378 216.719 96.9288 218.231 94.1842 218.845C91.4396 219.458 88.6052 217.782 89.0711 214.594L95.7953 182.829L102.309 141.839L100.739 112.103L90.9274 121.023C89.7157 122.125 88.8479 123.553 88.4284 125.136L84.0021 141.839C83.2051 146.09 81.1715 148.481 77.8918 148.481C74.6121 148.481 73.6411 143.964 74.3837 140.319L78.9723 118.315C79.2081 117.184 79.6705 116.114 80.3422 115.174C82.6478 111.948 88.3679 104.068 91.9721 100.189C96.5711 95.2381 98.3482 91.6279 108.444 88.1363L121.727 85.1698C126.243 84.4549 130.328 86.1548 133.524 87.747L145.845 98.2182C148.319 100.321 151.782 100.839 154.637 99.2926C156.588 98.2353 158.556 97.1099 160.765 95.9879C163.162 94.497 165.388 93.1214 167.015 92.1186C167.828 91.6171 168.492 91.2086 168.953 90.9254L169.485 90.5984L169.673 90.4832Z" fill="#002EA6"/>
<ellipse cx="12.8447" cy="13.8673" rx="12.8447" ry="13.8673" transform="matrix(-0.866025 0.5 0.5 0.866025 124.556 49.4021)" fill="#002EA6"/>
<path d="M146.227 101.234C146.262 99.8194 147.111 98.3849 148.386 97.5506C153.931 93.9219 169.403 83.5008 182.065 72.1723C183.266 71.0978 184.841 70.73 186.104 71.1825C190.531 72.7675 201.725 76.033 216.218 74.8388C218.072 74.6859 219.496 75.9769 219.449 77.8771L218.504 115.984C218.436 118.741 218.101 121.541 217.225 124.322C215.594 129.499 212.161 138.555 206.262 146.173C201.766 151.978 187.214 166.45 182.796 170.718C181.99 171.496 180.999 171.81 180.078 171.596C175.812 170.605 163.096 167.285 155.298 161.321C150.844 158.227 147.604 153.574 145.941 147.963C145.273 145.71 145.166 143.226 145.229 140.727L146.227 101.234Z" fill="#FE975C"/>
<path opacity="0.6" d="M171.381 149.823L209.255 169.634" stroke="white" stroke-width="11.158" stroke-linecap="round"/>
<path opacity="0.2" d="M237.798 162.045L260.114 173.734" stroke="white" stroke-width="11.158" stroke-linecap="round"/>
<path d="M190.509 109.974L253.206 142.916" stroke="white" stroke-width="11.158" stroke-linecap="round"/>
<defs>
<filter id="filter0_b_820_29504" x="13.9252" y="130.49" width="32.773" height="51.4197" filterUnits="userSpaceOnUse" color-interpolation-filters="sRGB">
<feFlood flood-opacity="0" result="BackgroundImageFix"/>
<feGaussianBlur in="BackgroundImageFix" stdDeviation="2.48139"/>
<feComposite in2="SourceAlpha" operator="in" result="effect1_backgroundBlur_820_29504"/>
<feBlend mode="normal" in="SourceGraphic" in2="effect1_backgroundBlur_820_29504" result="shape"/>
</filter>
<filter id="filter1_b_820_29504" x="26.6774" y="73.6288" width="54.0264" height="58.8751" filterUnits="userSpaceOnUse" color-interpolation-filters="sRGB">
<feFlood flood-opacity="0" result="BackgroundImageFix"/>
<feGaussianBlur in="BackgroundImageFix" stdDeviation="2.48139"/>
<feComposite in2="SourceAlpha" operator="in" result="effect1_backgroundBlur_820_29504"/>
<feBlend mode="normal" in="SourceGraphic" in2="effect1_backgroundBlur_820_29504" result="shape"/>
</filter>
<filter id="filter2_b_820_29504" x="50.5873" y="15.8506" width="104.503" height="150.132" filterUnits="userSpaceOnUse" color-interpolation-filters="sRGB">
<feFlood flood-opacity="0" result="BackgroundImageFix"/>
<feGaussianBlur in="BackgroundImageFix" stdDeviation="2.48139"/>
<feComposite in2="SourceAlpha" operator="in" result="effect1_backgroundBlur_820_29504"/>
<feBlend mode="normal" in="SourceGraphic" in2="effect1_backgroundBlur_820_29504" result="shape"/>
</filter>
<filter id="filter3_b_820_29504" x="42.8141" y="155.837" width="152.013" height="94.9033" filterUnits="userSpaceOnUse" color-interpolation-filters="sRGB">
<feFlood flood-opacity="0" result="BackgroundImageFix"/>
<feGaussianBlur in="BackgroundImageFix" stdDeviation="2.65667"/>
<feComposite in2="SourceAlpha" operator="in" result="effect1_backgroundBlur_820_29504"/>
<feBlend mode="normal" in="SourceGraphic" in2="effect1_backgroundBlur_820_29504" result="shape"/>
</filter>
</defs>
</svg>
