<svg width="242" height="261" viewBox="0 0 242 261" fill="none" xmlns="http://www.w3.org/2000/svg">
<g filter="url(#filter0_b_1189_32027)">
<path d="M214.15 9.26345V147.78C214.15 150.973 212.46 153.928 209.708 155.547L41.4457 254.56C36.8245 257.28 30.9978 253.948 30.9978 248.586V115.657C30.9978 113.24 32.2562 110.998 34.319 109.739L206.242 4.82539C209.707 2.7112 214.15 5.20477 214.15 9.26345Z" fill="#1840B8"/>
<path d="M213.031 9.26345V147.78C213.031 150.577 211.551 153.164 209.141 154.583L40.8783 253.596C37.0029 255.876 32.1167 253.082 32.1167 248.586V115.657C32.1167 113.63 33.172 111.75 34.9018 110.694L206.825 5.78047C209.544 4.12125 213.031 6.0782 213.031 9.26345Z" stroke="#1840B8" stroke-width="2.23773"/>
</g>
<g opacity="0.2" filter="url(#filter1_b_1189_32027)">
<path d="M201.17 77.8451L201.17 85.0206C201.17 86.05 200.622 87.0014 199.731 87.517L187.712 94.4726C186.43 95.2145 184.826 94.2894 184.826 92.8083L184.826 85.6329C184.826 84.6035 185.375 83.6521 186.266 83.1365L198.284 76.1809C199.566 75.439 201.17 76.364 201.17 77.8451Z" fill="white"/>
<path d="M200.048 77.8451L200.048 85.0206C200.048 85.6494 199.713 86.2305 199.169 86.5454L187.15 93.5011C186.616 93.8099 185.949 93.4248 185.949 92.8083L185.949 85.6329C185.949 85.0041 186.284 84.423 186.828 84.108L198.847 77.1524C199.38 76.8436 200.048 77.2287 200.048 77.8451Z" stroke="#002EA6" stroke-opacity="0.1" stroke-width="2.24498"/>
</g>
<g opacity="0.2" filter="url(#filter2_b_1189_32027)">
<path d="M224.245 113.43L224.245 125.739C224.245 126.765 223.7 127.714 222.813 128.231L204.062 139.163C202.78 139.911 201.171 138.986 201.17 137.502L201.17 125.193C201.17 124.167 201.716 123.218 202.602 122.702L221.353 111.769C222.635 111.022 224.245 111.947 224.245 113.43Z" fill="white"/>
<path d="M223.122 113.43L223.122 125.739C223.122 126.366 222.789 126.946 222.248 127.261L203.496 138.194C202.963 138.505 202.293 138.12 202.293 137.502L202.293 125.193C202.293 124.567 202.626 123.987 203.167 123.671L221.919 112.739C222.452 112.428 223.122 112.813 223.122 113.43Z" stroke="#002EA6" stroke-opacity="0.1" stroke-width="2.24498"/>
</g>
<g opacity="0.2" filter="url(#filter3_b_1189_32027)">
<path d="M74.7427 140.357V210.922C74.7427 211.946 74.1993 212.894 73.3151 213.411L44.9483 230.011C43.6664 230.761 42.0543 229.836 42.0543 228.351L42.0542 157.786C42.0542 156.761 42.5976 155.814 43.4818 155.296L71.8487 138.697C73.1306 137.947 74.7427 138.871 74.7427 140.357Z" fill="white"/>
<path d="M73.6202 140.357V210.922C73.6202 211.548 73.2883 212.127 72.7482 212.443L44.3814 229.042C43.8478 229.354 43.1768 228.969 43.1768 228.351L43.1767 157.786C43.1767 157.16 43.5086 156.581 44.0487 156.265L72.4156 139.666C72.9492 139.354 73.6202 139.738 73.6202 140.357Z" stroke="#002EA6" stroke-opacity="0.1" stroke-width="2.24498"/>
</g>
<g opacity="0.2" filter="url(#filter4_b_1189_32027)">
<path d="M48.7841 201.869L48.7841 209.045C48.7841 210.074 48.2355 211.025 47.3445 211.541L35.3259 218.497C34.044 219.239 32.4399 218.314 32.4399 216.832L32.4398 209.657C32.4398 208.628 32.9884 207.676 33.8794 207.161L45.8981 200.205C47.18 199.463 48.7841 200.388 48.7841 201.869Z" fill="white"/>
<path d="M47.6616 201.869L47.6616 209.045C47.6616 209.673 47.3265 210.255 46.7823 210.57L34.7636 217.525C34.2301 217.834 33.5624 217.449 33.5624 216.832L33.5623 209.657C33.5623 209.028 33.8974 208.447 34.4416 208.132L46.4603 201.177C46.9939 200.868 47.6616 201.253 47.6616 201.869Z" stroke="#002EA6" stroke-opacity="0.1" stroke-width="2.24498"/>
</g>
<g opacity="0.2" filter="url(#filter5_b_1189_32027)">
<path d="M36.2855 190.813L36.2856 197.988C36.2856 199.018 35.7369 199.969 34.846 200.485L22.8273 207.44C21.5454 208.182 19.9413 207.257 19.9413 205.776L19.9413 198.601C19.9413 197.571 20.4899 196.62 21.3808 196.104L33.3995 189.149C34.6814 188.407 36.2855 189.332 36.2855 190.813Z" fill="white"/>
<path d="M35.163 190.813L35.1631 197.988C35.1631 198.617 34.828 199.198 34.2837 199.513L22.2651 206.469C21.7315 206.778 21.0638 206.393 21.0638 205.776L21.0638 198.601C21.0638 197.972 21.3989 197.391 21.9431 197.076L33.9618 190.12C34.4953 189.811 35.163 190.196 35.163 190.813Z" stroke="#002EA6" stroke-opacity="0.1" stroke-width="2.24498"/>
</g>
<g opacity="0.2" filter="url(#filter6_b_1189_32027)">
<path d="M82.9148 145.626L82.9148 152.801C82.9148 153.831 82.3662 154.782 81.4753 155.298L69.4566 162.253C68.1747 162.995 66.5706 162.07 66.5706 160.589L66.5706 153.414C66.5706 152.384 67.1192 151.433 68.0101 150.917L80.0288 143.962C81.3107 143.22 82.9148 144.145 82.9148 145.626Z" fill="white"/>
<path d="M81.7923 145.626L81.7923 152.801C81.7923 153.43 81.4572 154.011 80.913 154.326L68.8944 161.282C68.3608 161.591 67.6931 161.206 67.6931 160.589L67.6931 153.414C67.6931 152.785 68.0282 152.204 68.5724 151.889L80.591 144.933C81.1246 144.624 81.7923 145.009 81.7923 145.626Z" stroke="#002EA6" stroke-opacity="0.1" stroke-width="2.24498"/>
</g>
<path opacity="0.4" d="M162.282 59.4695L162.282 176.848C162.282 181.339 159.887 185.489 155.998 187.735L103.015 218.332C99.4235 220.407 94.933 217.814 94.933 213.666L94.9328 96.2879C94.9327 91.7968 97.3284 87.6469 101.217 85.4009L154.2 54.8037C157.792 52.7293 162.282 55.3216 162.282 59.4695Z" fill="#002EA6"/>
<g filter="url(#filter7_b_1189_32027)">
<path d="M170.364 64.8572L170.364 182.236C170.364 186.727 167.968 190.877 164.079 193.123L111.097 223.72C107.505 225.794 103.015 223.202 103.015 219.054L103.015 101.676C103.015 97.1846 105.41 93.0347 109.299 90.7887L162.281 60.1914C165.873 58.1171 170.364 60.7093 170.364 64.8572Z" fill="white"/>
<path d="M169.241 64.8572L169.242 182.236C169.242 186.326 167.06 190.105 163.518 192.151L110.536 222.748C107.692 224.39 104.137 222.338 104.137 219.054L104.137 101.676C104.137 97.5856 106.319 93.8062 109.861 91.7607L162.843 61.1635C165.686 59.5213 169.241 61.5735 169.241 64.8572Z" stroke="#002EA6" stroke-opacity="0.1" stroke-width="2.24498"/>
</g>
<path d="M146.702 43.9269L146.702 45.0192C146.702 49.5177 144.298 53.6734 140.399 55.9166L115.265 70.3759C111.673 72.4423 107.19 69.8496 107.19 65.7056L107.19 64.6133C107.19 60.1148 109.594 55.9591 113.493 53.7159L138.627 39.2566C142.219 37.1902 146.702 39.7829 146.702 43.9269Z" fill="#1840B8"/>
<path d="M152.47 47.2919L152.47 48.3842C152.47 52.8827 150.067 57.0384 146.167 59.2816L121.033 73.7409C117.441 75.8073 112.959 73.2146 112.959 69.0706L112.959 67.9783C112.959 63.4798 115.362 59.3241 119.261 57.0809L144.395 42.6216C147.987 40.5552 152.47 43.1479 152.47 47.2919Z" fill="#25DB9A"/>
<path fill-rule="evenodd" clip-rule="evenodd" d="M171.063 227.485L105.267 189.526V157.193L198.492 210.977L209.521 204.338L220.405 244.299L157.097 235.891L171.063 227.485Z" fill="#25DB9A"/>
<path d="M191.075 206.707L161.27 206.467L161.751 189.642L191.075 206.707Z" fill="url(#paint0_linear_1189_32027)"/>
<path d="M119.454 187.259L158.875 188.178L137.469 175.702L137.228 175.462L118.731 185.337L119.454 187.259Z" fill="url(#paint1_linear_1189_32027)"/>
<path d="M134.641 176.216L136.814 160.758L147.59 162.104L145.542 176.497C144.995 180.341 142.039 183.399 138.216 184.075L120.329 187.238C119.526 187.38 118.729 186.964 118.386 186.224L118.078 185.559C117.657 184.649 118.063 183.569 118.98 183.162L134.641 176.216Z" fill="#002EA6"/>
<path d="M131.572 158.226C132.657 150.088 134.768 135.15 136.465 128.52L153.078 130.541L146.567 155.236L160.043 168.521C161.629 170.085 162.577 172.182 162.704 174.405L164.392 204.049C164.466 205.337 163.441 206.421 162.151 206.421H161.367C160.178 206.421 159.13 205.642 158.787 204.503L150.384 176.563L135.533 166.833C132.668 164.956 131.119 161.621 131.572 158.226Z" fill="url(#paint2_linear_1189_32027)"/>
<path d="M169.042 149.651L178.858 140.62C180.086 139.491 180.177 137.585 179.064 136.344C178.004 135.162 176.22 134.997 174.971 135.977C170.728 139.308 164.335 144.295 162.148 143.709C159.528 143.007 155.133 131.663 152.404 129.194C147.695 124.934 141.405 122.01 140.977 131.015C140.688 137.098 147.579 145.167 154.404 150.75C158.763 154.316 164.897 153.464 169.042 149.651Z" fill="url(#paint3_linear_1189_32027)"/>
<path d="M119.655 146.274L125.186 156.847C125.911 158.233 127.616 158.779 129.011 158.072C130.339 157.398 130.922 155.822 130.337 154.453C128.349 149.799 125.382 142.796 126.444 140.956C127.717 138.752 136.437 137.696 140.638 137.444C145.641 134.211 153.247 124.9 143.086 124.855C137.589 124.83 129.169 128.123 122.636 132.175C117.85 135.143 117.045 141.284 119.655 146.274Z" fill="#002EA6"/>
<ellipse cx="9.53619" cy="10.2954" rx="9.53619" ry="10.2954" transform="matrix(-0.866025 0.5 0.5 0.866025 155.225 100.843)" fill="url(#paint4_linear_1189_32027)"/>
<g opacity="0.2" filter="url(#filter8_b_1189_32027)">
<path d="M210.543 117.276L210.543 123.093C210.543 124.119 209.998 125.068 209.112 125.584L199.013 131.472C197.731 132.219 196.122 131.295 196.122 129.811L196.122 123.994C196.122 122.968 196.667 122.019 197.554 121.503L207.652 115.615C208.934 114.868 210.543 115.792 210.543 117.276Z" fill="white"/>
<path d="M209.421 117.276L209.421 123.093C209.421 123.719 209.088 124.299 208.546 124.615L198.448 130.502C197.914 130.813 197.244 130.429 197.244 129.811L197.244 123.994C197.244 123.367 197.577 122.788 198.119 122.472L208.217 116.585C208.751 116.274 209.421 116.658 209.421 117.276Z" stroke="#002EA6" stroke-opacity="0.1" stroke-width="2.24498"/>
</g>
<defs>
<filter id="filter0_b_1189_32027" x="27.7604" y="0.818745" width="189.627" height="257.947" filterUnits="userSpaceOnUse" color-interpolation-filters="sRGB">
<feFlood flood-opacity="0" result="BackgroundImageFix"/>
<feGaussianBlur in="BackgroundImageFix" stdDeviation="1.6187"/>
<feComposite in2="SourceAlpha" operator="in" result="effect1_backgroundBlur_1189_32027"/>
<feBlend mode="normal" in="SourceGraphic" in2="effect1_backgroundBlur_1189_32027" result="shape"/>
</filter>
<filter id="filter1_b_1189_32027" x="180.336" y="71.4295" width="25.3242" height="27.7946" filterUnits="userSpaceOnUse" color-interpolation-filters="sRGB">
<feFlood flood-opacity="0" result="BackgroundImageFix"/>
<feGaussianBlur in="BackgroundImageFix" stdDeviation="2.24498"/>
<feComposite in2="SourceAlpha" operator="in" result="effect1_backgroundBlur_1189_32027"/>
<feBlend mode="normal" in="SourceGraphic" in2="effect1_backgroundBlur_1189_32027" result="shape"/>
</filter>
<filter id="filter2_b_1189_32027" x="196.68" y="107.015" width="32.0542" height="36.9035" filterUnits="userSpaceOnUse" color-interpolation-filters="sRGB">
<feFlood flood-opacity="0" result="BackgroundImageFix"/>
<feGaussianBlur in="BackgroundImageFix" stdDeviation="2.24498"/>
<feComposite in2="SourceAlpha" operator="in" result="effect1_backgroundBlur_1189_32027"/>
<feBlend mode="normal" in="SourceGraphic" in2="effect1_backgroundBlur_1189_32027" result="shape"/>
</filter>
<filter id="filter3_b_1189_32027" x="37.5642" y="133.941" width="41.6684" height="100.826" filterUnits="userSpaceOnUse" color-interpolation-filters="sRGB">
<feFlood flood-opacity="0" result="BackgroundImageFix"/>
<feGaussianBlur in="BackgroundImageFix" stdDeviation="2.24498"/>
<feComposite in2="SourceAlpha" operator="in" result="effect1_backgroundBlur_1189_32027"/>
<feBlend mode="normal" in="SourceGraphic" in2="effect1_backgroundBlur_1189_32027" result="shape"/>
</filter>
<filter id="filter4_b_1189_32027" x="27.9499" y="195.454" width="25.3242" height="27.7946" filterUnits="userSpaceOnUse" color-interpolation-filters="sRGB">
<feFlood flood-opacity="0" result="BackgroundImageFix"/>
<feGaussianBlur in="BackgroundImageFix" stdDeviation="2.24498"/>
<feComposite in2="SourceAlpha" operator="in" result="effect1_backgroundBlur_1189_32027"/>
<feBlend mode="normal" in="SourceGraphic" in2="effect1_backgroundBlur_1189_32027" result="shape"/>
</filter>
<filter id="filter5_b_1189_32027" x="15.4513" y="184.397" width="25.3242" height="27.7946" filterUnits="userSpaceOnUse" color-interpolation-filters="sRGB">
<feFlood flood-opacity="0" result="BackgroundImageFix"/>
<feGaussianBlur in="BackgroundImageFix" stdDeviation="2.24498"/>
<feComposite in2="SourceAlpha" operator="in" result="effect1_backgroundBlur_1189_32027"/>
<feBlend mode="normal" in="SourceGraphic" in2="effect1_backgroundBlur_1189_32027" result="shape"/>
</filter>
<filter id="filter6_b_1189_32027" x="62.0806" y="139.21" width="25.3242" height="27.7946" filterUnits="userSpaceOnUse" color-interpolation-filters="sRGB">
<feFlood flood-opacity="0" result="BackgroundImageFix"/>
<feGaussianBlur in="BackgroundImageFix" stdDeviation="2.24498"/>
<feComposite in2="SourceAlpha" operator="in" result="effect1_backgroundBlur_1189_32027"/>
<feBlend mode="normal" in="SourceGraphic" in2="effect1_backgroundBlur_1189_32027" result="shape"/>
</filter>
<filter id="filter7_b_1189_32027" x="98.5246" y="54.9713" width="76.3294" height="173.969" filterUnits="userSpaceOnUse" color-interpolation-filters="sRGB">
<feFlood flood-opacity="0" result="BackgroundImageFix"/>
<feGaussianBlur in="BackgroundImageFix" stdDeviation="2.24498"/>
<feComposite in2="SourceAlpha" operator="in" result="effect1_backgroundBlur_1189_32027"/>
<feBlend mode="normal" in="SourceGraphic" in2="effect1_backgroundBlur_1189_32027" result="shape"/>
</filter>
<filter id="filter8_b_1189_32027" x="191.632" y="110.86" width="23.4013" height="25.3663" filterUnits="userSpaceOnUse" color-interpolation-filters="sRGB">
<feFlood flood-opacity="0" result="BackgroundImageFix"/>
<feGaussianBlur in="BackgroundImageFix" stdDeviation="2.24498"/>
<feComposite in2="SourceAlpha" operator="in" result="effect1_backgroundBlur_1189_32027"/>
<feBlend mode="normal" in="SourceGraphic" in2="effect1_backgroundBlur_1189_32027" result="shape"/>
</filter>
<linearGradient id="paint0_linear_1189_32027" x1="173.69" y1="200.386" x2="199.29" y2="192.117" gradientUnits="userSpaceOnUse">
<stop stop-color="#08A592"/>
<stop offset="1" stop-color="#C4C4C4" stop-opacity="0"/>
</linearGradient>
<linearGradient id="paint1_linear_1189_32027" x1="135.455" y1="183.485" x2="163.86" y2="166.89" gradientUnits="userSpaceOnUse">
<stop stop-color="#08A592"/>
<stop offset="1" stop-color="#C4C4C4" stop-opacity="0"/>
</linearGradient>
<linearGradient id="paint2_linear_1189_32027" x1="147.792" y1="139.053" x2="142.806" y2="185.098" gradientUnits="userSpaceOnUse">
<stop stop-color="#002EA6"/>
<stop offset="1" stop-color="#002074"/>
</linearGradient>
<linearGradient id="paint3_linear_1189_32027" x1="144.469" y1="138.138" x2="168.503" y2="142.677" gradientUnits="userSpaceOnUse">
<stop stop-color="#002EA6"/>
<stop offset="1" stop-color="#002074"/>
</linearGradient>
<linearGradient id="paint4_linear_1189_32027" x1="9.59381" y1="2.78399" x2="8.97312" y2="15.066" gradientUnits="userSpaceOnUse">
<stop stop-color="#002EA6"/>
<stop offset="1" stop-color="#002074"/>
</linearGradient>
</defs>
</svg>
