<svg width="662" height="588" viewBox="0 0 662 588" fill="none" xmlns="http://www.w3.org/2000/svg">
<g filter="url(#filter0_b_1189_31994)">
<path d="M459 19.2702V307.418C459 314.06 455.485 320.206 449.761 323.575L99.7341 529.547C90.1209 535.203 78 528.272 78 517.118V240.594C78 235.567 80.6178 230.903 84.9088 228.284L442.551 10.038C449.758 5.63994 459 10.8271 459 19.2702Z" fill="#1840B8"/>
<path d="M456.672 19.2702V307.418C456.672 313.236 453.594 318.619 448.58 321.569L98.5537 527.541C90.492 532.284 80.3275 526.472 80.3275 517.118V240.594C80.3275 236.378 82.5228 232.467 86.1212 230.271L443.763 12.0248C449.419 8.5732 456.672 12.6441 456.672 19.2702Z" stroke="#1840B8" stroke-width="4.65502"/>
</g>
<g opacity="0.2" filter="url(#filter1_b_1189_31994)">
<path d="M432 161.936L432 176.863C432 179.005 430.859 180.984 429.005 182.056L404.004 196.526C401.337 198.069 398 196.145 398 193.064L398 178.137C398 175.995 399.141 174.016 400.995 172.944L425.996 158.474C428.663 156.931 432 158.855 432 161.936Z" fill="white"/>
<path d="M429.665 161.936L429.665 176.863C429.665 178.171 428.968 179.38 427.836 180.035L402.834 194.505C401.724 195.147 400.335 194.346 400.335 193.064L400.335 178.137C400.335 176.829 401.032 175.62 402.164 174.965L427.166 160.495C428.276 159.853 429.665 160.654 429.665 161.936Z" stroke="#002EA6" stroke-opacity="0.1" stroke-width="4.6701"/>
</g>
<g opacity="0.2" filter="url(#filter2_b_1189_31994)">
<path d="M480 235.962L480 261.568C480 263.702 478.866 265.676 477.022 266.751L438.015 289.493C435.348 291.048 432 289.125 432 286.038L432 260.432C432 258.298 433.134 256.324 434.978 255.249L473.985 232.507C476.652 230.952 480 232.875 480 235.962Z" fill="white"/>
<path d="M477.665 235.962L477.665 261.568C477.665 262.872 476.972 264.077 475.846 264.734L436.839 287.476C435.729 288.123 434.335 287.323 434.335 286.038L434.335 260.432C434.335 259.128 435.028 257.923 436.154 257.266L475.161 234.524C476.271 233.877 477.665 234.677 477.665 235.962Z" stroke="#002EA6" stroke-opacity="0.1" stroke-width="4.6701"/>
</g>
<g opacity="0.2" filter="url(#filter3_b_1189_31994)">
<path d="M169 291.975V438.768C169 440.899 167.869 442.87 166.03 443.947L107.02 478.477C104.354 480.037 101 478.114 101 475.025L101 328.232C101 326.101 102.13 324.13 103.97 323.053L162.98 288.523C165.646 286.962 169 288.886 169 291.975Z" fill="white"/>
<path d="M166.665 291.975V438.768C166.665 440.07 165.974 441.274 164.851 441.931L105.841 476.462L107.02 478.477L105.841 476.462C104.731 477.111 103.335 476.311 103.335 475.025L103.335 328.232C103.335 326.93 104.026 325.726 105.149 325.069L164.159 290.538C165.269 289.889 166.665 290.689 166.665 291.975Z" stroke="#002EA6" stroke-opacity="0.1" stroke-width="4.6701"/>
</g>
<g opacity="0.2" filter="url(#filter4_b_1189_31994)">
<path d="M115 419.936L115 434.863C115 437.005 113.859 438.984 112.005 440.056L87.0037 454.526C84.337 456.069 81.0001 454.145 81.0001 451.064L81 436.137C81 433.995 82.1412 432.016 83.9946 430.944L108.996 416.474C111.663 414.931 115 416.855 115 419.936Z" fill="white"/>
<path d="M112.665 419.936L112.665 434.863C112.665 436.171 111.968 437.38 110.836 438.035L85.8341 452.505C84.7241 453.147 83.3352 452.346 83.3352 451.064L83.3351 436.137C83.3351 434.829 84.0322 433.62 85.1643 432.965L110.166 418.495C111.276 417.853 112.665 418.654 112.665 419.936Z" stroke="#002EA6" stroke-opacity="0.1" stroke-width="4.6701"/>
</g>
<g opacity="0.2" filter="url(#filter5_b_1189_31994)">
<path d="M88.9999 396.936L89 411.863C89 414.005 87.8588 415.984 86.0054 417.056L61.0037 431.526C58.337 433.069 55.0001 431.145 55.0001 428.064L55 413.137C55 410.995 56.1412 409.016 57.9946 407.944L82.9964 393.474C85.663 391.931 88.9999 393.855 88.9999 396.936Z" fill="white"/>
<path d="M86.6649 396.936L86.6649 411.863C86.6649 413.171 85.9678 414.38 84.8358 415.035L59.8341 429.505C58.7241 430.147 57.3352 429.346 57.3352 428.064L57.3351 413.137C57.3351 411.829 58.0322 410.62 59.1643 409.965L84.166 395.495C85.2759 394.853 86.6649 395.654 86.6649 396.936Z" stroke="#002EA6" stroke-opacity="0.1" stroke-width="4.6701"/>
</g>
<g opacity="0.2" filter="url(#filter6_b_1189_31994)">
<path d="M186 302.936L186 317.863C186 320.005 184.859 321.984 183.005 323.056L158.004 337.526C155.337 339.069 152 337.145 152 334.064L152 319.137C152 316.995 153.141 315.016 154.995 313.944L179.996 299.474C182.663 297.931 186 299.855 186 302.936Z" fill="white"/>
<path d="M183.665 302.936L183.665 317.863C183.665 319.171 182.968 320.38 181.836 321.035L156.834 335.505C155.724 336.147 154.335 335.346 154.335 334.064L154.335 319.137C154.335 317.829 155.032 316.62 156.164 315.965L181.166 301.495C182.276 300.853 183.665 301.654 183.665 302.936Z" stroke="#002EA6" stroke-opacity="0.1" stroke-width="4.6701"/>
</g>
<path opacity="0.4" d="M351.103 123.711L351.103 367.886C351.103 377.228 346.12 385.861 338.029 390.533L227.814 454.183C220.342 458.498 211.001 453.106 211.001 444.477L211 200.302C211 190.959 215.984 182.326 224.074 177.654L334.289 114.005C341.762 109.689 351.103 115.082 351.103 123.711Z" fill="#002EA6"/>
<g filter="url(#filter7_b_1189_31994)">
<path d="M367.915 134.919L367.916 379.094C367.916 388.436 362.932 397.069 354.842 401.741L244.627 465.391C237.154 469.706 227.813 464.314 227.813 455.685L227.813 211.51C227.813 202.167 232.796 193.534 240.886 188.862L351.102 125.213C358.574 120.898 367.915 126.29 367.915 134.919Z" fill="white"/>
<path d="M365.58 134.919L365.581 379.094C365.581 387.602 361.042 395.464 353.674 399.719L243.459 463.369C237.543 466.785 230.148 462.516 230.148 455.685L230.148 211.51C230.148 203.002 234.686 195.139 242.054 190.884L352.27 127.235C358.185 123.819 365.58 128.088 365.58 134.919Z" stroke="#002EA6" stroke-opacity="0.1" stroke-width="4.6701"/>
</g>
<path d="M318.692 91.3785L318.692 93.6508C318.692 103.009 313.692 111.653 305.58 116.32L253.296 146.399C245.823 150.697 236.498 145.304 236.498 136.684L236.498 134.411C236.498 125.053 241.498 116.408 249.61 111.742L301.894 81.6632C309.367 77.3646 318.692 82.7581 318.692 91.3785Z" fill="#1840B8"/>
<path d="M330.692 98.3785L330.692 100.651C330.692 110.009 325.692 118.653 317.58 123.32L265.296 153.399C257.823 157.697 248.498 152.304 248.498 143.684L248.498 141.411C248.498 132.053 253.498 123.408 261.61 118.742L313.894 88.6632C321.367 84.3646 330.692 89.7581 330.692 98.3785Z" fill="#25DB9A"/>
<path fill-rule="evenodd" clip-rule="evenodd" d="M369.369 473.224L232.498 394.26V327L426.428 438.882L449.373 425.072L472.013 508.2L340.316 490.71L369.369 473.224Z" fill="#25DB9A"/>
<path d="M410.998 430L348.998 429.5L349.998 394.5L410.998 430Z" fill="url(#paint0_linear_1189_31994)"/>
<path d="M262.01 389.543L344.014 391.455L299.486 365.503L298.984 365.004L260.506 385.545L262.01 389.543Z" fill="url(#paint1_linear_1189_31994)"/>
<path d="M293.603 366.572L298.123 334.415L320.54 337.216L316.28 367.156C315.142 375.153 308.993 381.513 301.039 382.92L263.83 389.499C262.161 389.795 260.502 388.929 259.789 387.391L259.148 386.008C258.271 384.114 259.116 381.868 261.024 381.022L293.603 366.572Z" fill="#002EA6"/>
<path d="M287.218 329.149C289.476 312.219 293.867 281.145 297.397 267.353L331.956 271.556L318.412 322.927L346.445 350.564C349.744 353.817 351.717 358.179 351.98 362.805L355.493 424.47C355.645 427.149 353.514 429.406 350.83 429.406H349.199C346.726 429.406 344.545 427.784 343.832 425.416L326.352 367.293L295.458 347.052C289.499 343.148 286.276 336.211 287.218 329.149Z" fill="url(#paint2_linear_1189_31994)"/>
<path d="M365.165 311.31L385.586 292.524C388.139 290.175 388.329 286.211 386.013 283.628C383.808 281.17 380.098 280.826 377.5 282.865C368.673 289.794 355.374 300.168 350.824 298.949C345.373 297.488 336.231 273.89 330.555 268.754C320.76 259.892 307.673 253.81 306.783 272.543C306.183 285.197 320.518 301.981 334.715 313.595C343.783 321.013 356.543 319.242 365.165 311.31Z" fill="url(#paint3_linear_1189_31994)"/>
<path d="M262.429 304.285L273.934 326.28C275.442 329.164 278.988 330.299 281.891 328.827C284.654 327.426 285.866 324.147 284.649 321.299C280.513 311.618 274.342 297.049 276.552 293.222C279.199 288.638 297.339 286.441 306.078 285.916C316.487 279.191 332.308 259.822 311.171 259.728C299.735 259.677 282.22 266.526 268.63 274.955C258.674 281.13 256.999 293.904 262.429 304.285Z" fill="#002EA6"/>
<ellipse cx="19.8376" cy="21.4169" rx="19.8376" ry="21.4169" transform="matrix(-0.866025 0.5 0.5 0.866025 336.422 209.778)" fill="url(#paint4_linear_1189_31994)"/>
<g opacity="0.2" filter="url(#filter8_b_1189_31994)">
<path d="M451.498 243.962L451.498 256.062C451.498 258.197 450.364 260.171 448.52 261.246L427.513 273.493C424.846 275.048 421.498 273.125 421.498 270.038L421.498 257.938C421.498 255.803 422.632 253.829 424.476 252.754L445.483 240.507C448.15 238.952 451.498 240.875 451.498 243.962Z" fill="white"/>
<path d="M449.163 243.962L449.163 256.062C449.163 257.366 448.47 258.572 447.344 259.228L426.337 271.476C425.227 272.123 423.833 271.323 423.833 270.038L423.833 257.938C423.833 256.634 424.526 255.428 425.652 254.772L446.659 242.524C447.769 241.877 449.163 242.677 449.163 243.962Z" stroke="#002EA6" stroke-opacity="0.1" stroke-width="4.6701"/>
</g>
<defs>
<filter id="filter0_b_1189_31994" x="71.2654" y="1.70322" width="394.469" height="536.592" filterUnits="userSpaceOnUse" color-interpolation-filters="sRGB">
<feFlood flood-opacity="0" result="BackgroundImageFix"/>
<feGaussianBlur in="BackgroundImageFix" stdDeviation="3.36729"/>
<feComposite in2="SourceAlpha" operator="in" result="effect1_backgroundBlur_1189_31994"/>
<feBlend mode="normal" in="SourceGraphic" in2="effect1_backgroundBlur_1189_31994" result="shape"/>
</filter>
<filter id="filter1_b_1189_31994" x="388.66" y="148.59" width="52.6804" height="57.8195" filterUnits="userSpaceOnUse" color-interpolation-filters="sRGB">
<feFlood flood-opacity="0" result="BackgroundImageFix"/>
<feGaussianBlur in="BackgroundImageFix" stdDeviation="4.6701"/>
<feComposite in2="SourceAlpha" operator="in" result="effect1_backgroundBlur_1189_31994"/>
<feBlend mode="normal" in="SourceGraphic" in2="effect1_backgroundBlur_1189_31994" result="shape"/>
</filter>
<filter id="filter2_b_1189_31994" x="422.66" y="222.616" width="66.6804" height="76.7679" filterUnits="userSpaceOnUse" color-interpolation-filters="sRGB">
<feFlood flood-opacity="0" result="BackgroundImageFix"/>
<feGaussianBlur in="BackgroundImageFix" stdDeviation="4.6701"/>
<feComposite in2="SourceAlpha" operator="in" result="effect1_backgroundBlur_1189_31994"/>
<feBlend mode="normal" in="SourceGraphic" in2="effect1_backgroundBlur_1189_31994" result="shape"/>
</filter>
<filter id="filter3_b_1189_31994" x="91.6598" y="278.629" width="86.6802" height="209.742" filterUnits="userSpaceOnUse" color-interpolation-filters="sRGB">
<feFlood flood-opacity="0" result="BackgroundImageFix"/>
<feGaussianBlur in="BackgroundImageFix" stdDeviation="4.6701"/>
<feComposite in2="SourceAlpha" operator="in" result="effect1_backgroundBlur_1189_31994"/>
<feBlend mode="normal" in="SourceGraphic" in2="effect1_backgroundBlur_1189_31994" result="shape"/>
</filter>
<filter id="filter4_b_1189_31994" x="71.6598" y="406.59" width="52.6804" height="57.8194" filterUnits="userSpaceOnUse" color-interpolation-filters="sRGB">
<feFlood flood-opacity="0" result="BackgroundImageFix"/>
<feGaussianBlur in="BackgroundImageFix" stdDeviation="4.6701"/>
<feComposite in2="SourceAlpha" operator="in" result="effect1_backgroundBlur_1189_31994"/>
<feBlend mode="normal" in="SourceGraphic" in2="effect1_backgroundBlur_1189_31994" result="shape"/>
</filter>
<filter id="filter5_b_1189_31994" x="45.6598" y="383.59" width="52.6804" height="57.8194" filterUnits="userSpaceOnUse" color-interpolation-filters="sRGB">
<feFlood flood-opacity="0" result="BackgroundImageFix"/>
<feGaussianBlur in="BackgroundImageFix" stdDeviation="4.6701"/>
<feComposite in2="SourceAlpha" operator="in" result="effect1_backgroundBlur_1189_31994"/>
<feBlend mode="normal" in="SourceGraphic" in2="effect1_backgroundBlur_1189_31994" result="shape"/>
</filter>
<filter id="filter6_b_1189_31994" x="142.66" y="289.59" width="52.6804" height="57.8195" filterUnits="userSpaceOnUse" color-interpolation-filters="sRGB">
<feFlood flood-opacity="0" result="BackgroundImageFix"/>
<feGaussianBlur in="BackgroundImageFix" stdDeviation="4.6701"/>
<feComposite in2="SourceAlpha" operator="in" result="effect1_backgroundBlur_1189_31994"/>
<feBlend mode="normal" in="SourceGraphic" in2="effect1_backgroundBlur_1189_31994" result="shape"/>
</filter>
<filter id="filter7_b_1189_31994" x="218.472" y="114.354" width="158.783" height="361.897" filterUnits="userSpaceOnUse" color-interpolation-filters="sRGB">
<feFlood flood-opacity="0" result="BackgroundImageFix"/>
<feGaussianBlur in="BackgroundImageFix" stdDeviation="4.6701"/>
<feComposite in2="SourceAlpha" operator="in" result="effect1_backgroundBlur_1189_31994"/>
<feBlend mode="normal" in="SourceGraphic" in2="effect1_backgroundBlur_1189_31994" result="shape"/>
</filter>
<filter id="filter8_b_1189_31994" x="412.158" y="230.616" width="48.6804" height="52.7679" filterUnits="userSpaceOnUse" color-interpolation-filters="sRGB">
<feFlood flood-opacity="0" result="BackgroundImageFix"/>
<feGaussianBlur in="BackgroundImageFix" stdDeviation="4.6701"/>
<feComposite in2="SourceAlpha" operator="in" result="effect1_backgroundBlur_1189_31994"/>
<feBlend mode="normal" in="SourceGraphic" in2="effect1_backgroundBlur_1189_31994" result="shape"/>
</filter>
<linearGradient id="paint0_linear_1189_31994" x1="374.833" y1="416.852" x2="428.088" y2="399.65" gradientUnits="userSpaceOnUse">
<stop stop-color="#08A592"/>
<stop offset="1" stop-color="#C4C4C4" stop-opacity="0"/>
</linearGradient>
<linearGradient id="paint1_linear_1189_31994" x1="295.296" y1="381.693" x2="354.385" y2="347.171" gradientUnits="userSpaceOnUse">
<stop stop-color="#08A592"/>
<stop offset="1" stop-color="#C4C4C4" stop-opacity="0"/>
</linearGradient>
<linearGradient id="paint2_linear_1189_31994" x1="320.96" y1="289.264" x2="310.587" y2="385.049" gradientUnits="userSpaceOnUse">
<stop stop-color="#002EA6"/>
<stop offset="1" stop-color="#002074"/>
</linearGradient>
<linearGradient id="paint3_linear_1189_31994" x1="314.047" y1="287.36" x2="364.045" y2="296.801" gradientUnits="userSpaceOnUse">
<stop stop-color="#002EA6"/>
<stop offset="1" stop-color="#002074"/>
</linearGradient>
<linearGradient id="paint4_linear_1189_31994" x1="19.9574" y1="5.79136" x2="18.6662" y2="31.3409" gradientUnits="userSpaceOnUse">
<stop stop-color="#002EA6"/>
<stop offset="1" stop-color="#002074"/>
</linearGradient>
</defs>
</svg>
