<svg width="320" height="444" viewBox="0 0 320 444" fill="none" xmlns="http://www.w3.org/2000/svg">
<path d="M0 204.732C0 201.355 1.94124 198.279 4.98954 196.825L303.13 54.6442C307.006 52.7959 311.484 55.6217 311.484 59.9158V251.172C311.484 253.335 310.289 255.32 308.378 256.333L12.861 412.863C7.02649 415.954 0 411.724 0 405.122V204.732Z" fill="#1840B8" fill-opacity="0.76"/>
<g filter="url(#filter0_b_6875_81448)">
<path d="M224.04 35.6797V141.207C224.04 147.093 220.94 152.544 215.881 155.553L71.7692 241.287C67.0004 244.124 60.9574 240.687 60.9574 235.138L60.9571 117.403C60.957 111.128 64.4758 105.384 70.0654 102.533L213.635 29.3067C218.395 26.879 224.04 30.3365 224.04 35.6797Z" fill="#002EA6"/>
<path d="M222.549 35.6797V141.207C222.549 146.567 219.726 151.531 215.119 154.272L71.0072 240.006C67.2319 242.252 62.4478 239.531 62.4478 235.138L62.4475 117.403C62.4475 111.689 65.652 106.457 70.7426 103.861L214.312 30.6344C218.08 28.7125 222.549 31.4497 222.549 35.6797Z" stroke="#002EA6" stroke-opacity="0.1" stroke-width="2.98086"/>
</g>
<path opacity="0.4" d="M85.0475 334.286L176.563 281.52C182.461 278.119 189.726 278.123 195.62 281.532L287.147 334.466C292.588 337.612 292.583 345.469 287.138 348.609L195.622 401.376C189.724 404.777 182.459 404.772 176.565 401.363L85.0382 348.43C79.5969 345.283 79.6021 337.426 85.0475 334.286Z" fill="#002EA6"/>
<g opacity="0.5" filter="url(#filter1_b_6875_81448)">
<path d="M71.7531 303.398L180.096 240.997C185.991 237.602 193.248 237.607 199.138 241.01L307.492 303.606C312.937 306.752 312.932 314.615 307.482 317.754L199.139 380.154C193.245 383.549 185.988 383.545 180.098 380.142L71.7438 317.545C66.298 314.399 66.3032 306.537 71.7531 303.398Z" fill="white"/>
<path d="M180.945 242.472L72.6022 304.872C68.2877 307.357 68.2836 313.582 72.5948 316.072L180.949 378.669C186.313 381.768 192.922 381.772 198.29 378.68L306.633 316.279C310.948 313.795 310.952 307.57 306.64 305.079L198.287 242.483C192.923 239.384 186.313 239.38 180.945 242.472Z" stroke="#002EA6" stroke-opacity="0.1" stroke-width="3.40258"/>
</g>
<g filter="url(#filter2_b_6875_81448)">
<path d="M247.653 55.8282V167.109C247.653 173.368 244.151 179.102 238.583 181.96L94.9913 255.666C90.2306 258.11 84.5703 254.653 84.5703 249.302V137.552C84.5703 131.277 88.0891 125.532 93.6787 122.681L237.248 49.4552C242.008 47.0274 247.653 50.4849 247.653 55.8282Z" fill="white"/>
<path d="M246.162 55.8282V167.109C246.162 172.81 242.974 178.031 237.902 180.634L94.3107 254.34L94.9913 255.666L94.3107 254.34C90.5418 256.275 86.0607 253.538 86.0607 249.302V137.552C86.0607 131.837 89.2653 126.605 94.3559 124.009L237.925 50.7829C241.694 48.8609 246.162 51.5981 246.162 55.8282Z" stroke="#002EA6" stroke-opacity="0.1" stroke-width="2.98086"/>
</g>
<path d="M188.522 105.216L188.465 105.252L188.408 105.284C180.709 109.614 174.708 116.722 170.597 124.755C166.451 132.857 164.135 142.095 164.135 150.559C164.135 158.717 167.48 164.174 172.636 166.502C177.799 168.833 184.64 167.957 191.372 163.732C198.029 159.553 203.349 152.875 207.047 145.167C210.775 137.397 212.909 128.45 212.909 119.944C212.909 103.266 201.915 96.8096 188.522 105.216Z" stroke="#25DB9A" stroke-width="4.86693"/>
<path d="M213.675 101.984C213.675 92.2438 207.243 88.385 199.309 93.365C191.375 98.3451 184.943 110.278 184.943 120.018C184.943 129.758 192.923 132.773 200.857 127.792C208.791 122.812 213.675 111.724 213.675 101.984Z" fill="#E60004"/>
<path d="M162.826 194.731L104.156 224.334" stroke="#4B6BBF" stroke-width="11.6806" stroke-linecap="round"/>
<path d="M150.769 178.163L104.216 200.264" stroke="#8DA3DB" stroke-width="11.6806" stroke-linecap="round"/>
<path d="M200.35 175.107L192.301 170.353C189.761 168.853 186.483 169.738 185.042 172.313C183.97 174.231 184.364 176.633 186.03 178.066C192.369 183.52 206.475 195.064 212.531 195.064C222.063 195.064 230.789 188.041 236.456 184.294C240.84 175.729 245.846 156.311 231.975 165.064C227.363 167.975 225.29 170.403 221.747 173.676C215.921 179.058 207.18 179.141 200.35 175.107Z" fill="#002EA6"/>
<path d="M267.708 195.826L260.52 207.031C258.228 210.604 259.012 215.331 262.333 217.974C268.591 208.359 287.259 199.319 280.799 186.761C276.491 178.386 264.653 160.912 258.558 159.307C245.08 155.755 251.282 175.197 257.75 178.35C260.792 179.833 264.854 184.71 267.499 188.196C269.193 190.43 269.222 193.467 267.708 195.826Z" fill="#002EA6"/>
<path d="M260.804 160.599L264.137 227.052L247.881 236.945L240.868 271.412L233.022 312.799C232.473 315.698 229.322 317.285 226.666 316.002C225.036 315.215 224.039 313.526 224.138 311.72L226.525 267.902L232.747 230.541C232.846 229.951 232.88 229.352 232.849 228.755L229.687 166.734C234.175 162.904 240.337 160.277 248.293 158.993C256.249 157.708 259.948 159.528 260.804 160.599Z" fill="#002EA6"/>
<path d="M259.353 257.997L250.821 231.328L263.369 214.996L272.008 253.529L278.834 290.595C279.288 293.062 277.394 295.336 274.886 295.336C273.166 295.336 271.637 294.24 271.084 292.611L259.353 257.997Z" fill="#002EA6"/>
<ellipse cx="13.4872" cy="14.57" rx="13.4872" ry="14.57" transform="matrix(0.865757 0.500465 -0.499535 0.866294 235.363 121.09)" fill="url(#paint0_linear_6875_81448)"/>
<defs>
<filter id="filter0_b_6875_81448" x="54.9953" y="22.5539" width="175.005" height="225.713" filterUnits="userSpaceOnUse" color-interpolation-filters="sRGB">
<feFlood flood-opacity="0" result="BackgroundImageFix"/>
<feGaussianBlur in="BackgroundImageFix" stdDeviation="2.98086"/>
<feComposite in2="SourceAlpha" operator="in" result="effect1_backgroundBlur_6875_81448"/>
<feBlend mode="normal" in="SourceGraphic" in2="effect1_backgroundBlur_6875_81448" result="shape"/>
</filter>
<filter id="filter1_b_6875_81448" x="60.8569" y="231.648" width="257.52" height="157.853" filterUnits="userSpaceOnUse" color-interpolation-filters="sRGB">
<feFlood flood-opacity="0" result="BackgroundImageFix"/>
<feGaussianBlur in="BackgroundImageFix" stdDeviation="3.40258"/>
<feComposite in2="SourceAlpha" operator="in" result="effect1_backgroundBlur_6875_81448"/>
<feBlend mode="normal" in="SourceGraphic" in2="effect1_backgroundBlur_6875_81448" result="shape"/>
</filter>
<filter id="filter2_b_6875_81448" x="78.6086" y="42.7023" width="175.005" height="219.724" filterUnits="userSpaceOnUse" color-interpolation-filters="sRGB">
<feFlood flood-opacity="0" result="BackgroundImageFix"/>
<feGaussianBlur in="BackgroundImageFix" stdDeviation="2.98086"/>
<feComposite in2="SourceAlpha" operator="in" result="effect1_backgroundBlur_6875_81448"/>
<feBlend mode="normal" in="SourceGraphic" in2="effect1_backgroundBlur_6875_81448" result="shape"/>
</filter>
<linearGradient id="paint0_linear_6875_81448" x1="13.5687" y1="3.93989" x2="12.6898" y2="21.3213" gradientUnits="userSpaceOnUse">
<stop stop-color="#002EA6"/>
<stop offset="1" stop-color="#002074"/>
</linearGradient>
</defs>
</svg>
