<svg id="Слой_1" data-name="Слой 1" xmlns="http://www.w3.org/2000/svg" xmlns:xlink="http://www.w3.org/1999/xlink" viewBox="0 0 80 80">
  <defs>
    <style>
      .cls-1, .cls-3, .cls-5 {
        fill: none;
      }

      .cls-2 {
        clip-path: url(#clip-path);
      }

      .cls-3 {
        stroke: #707793;
        stroke-width: 2.56px;
        opacity: 0.5;
        isolation: isolate;
      }

      .cls-4 {
        opacity: 0.1;
      }

      .cls-5, .cls-6, .cls-7, .cls-9 {
        stroke: #000;
        stroke-linejoin: round;
        stroke-width: 0.64px;
      }

      .cls-6, .cls-7, .cls-8, .cls-9 {
        fill: #fff;
      }

      .cls-6 {
        fill-opacity: 0.6;
      }

      .cls-7 {
        fill-opacity: 0.8;
      }

      .cls-8, .cls-9 {
        fill-opacity: 0.7;
      }

      .cls-11, .cls-12, .cls-8 {
        fill-rule: evenodd;
      }

      .cls-10 {
        opacity: 0.2;
      }

      .cls-12 {
        fill: #e61b4f;
      }
    </style>
    <clipPath id="clip-path">
      <rect class="cls-1" width="80" height="80"/>
    </clipPath>
  </defs>
  <title>fenix-main-page</title>
  <g class="cls-2">
    <g>
      <rect class="cls-3" x="1.28" y="1.28" width="77.44" height="77.44" rx="6.72"/>
      <g class="cls-4">
        <path class="cls-5" d="M39.94,67.84l-22.4-11.2,22.4-11.2,22.39,11.2Z"/>
        <path class="cls-6" d="M55.62,47.12,48.9,43.76l6.72-3.36,6.72,3.36Z"/>
        <path class="cls-6" d="M55.62,60V47.12l6.72-3.36V56.64Z"/>
        <path class="cls-6" d="M55.62,60V47.12L48.9,43.76V56.64Z"/>
        <path class="cls-7" d="M39.94,51l-22.4-11.2,22.4-11.2,22.39,11.2Z"/>
        <path class="cls-6" d="M24.26,30.32,17.54,27l6.72-3.36L31,27Z"/>
        <path class="cls-6" d="M24.25,43.2V30.32L31,27V39.84Z"/>
        <path class="cls-6" d="M24.25,43.2V30.32L17.53,27V39.84Z"/>
        <path class="cls-5" d="M39.94,34.24,17.54,23l22.4-11.2L62.33,23Z"/>
        <path class="cls-8" d="M39.94,67.84V51l22.39-11.2v16.8ZM43.85,60V55l6.72-3.36v5Zm9-9.52v5l6.72-3.36v-5Z"/>
        <path d="M39.94,51l-.15-.29a.32.32,0,0,0-.17.29Zm0,16.8h-.32a.31.31,0,0,0,.15.27.31.31,0,0,0,.31,0Zm22.39-28h.32a.31.31,0,0,0-.15-.27.31.31,0,0,0-.31,0Zm0,16.8.15.29a.32.32,0,0,0,.17-.29ZM43.85,55l-.14-.29a.33.33,0,0,0-.18.29Zm0,5h-.32a.32.32,0,0,0,.16.27.31.31,0,0,0,.31,0Zm6.72-8.4h.32a.31.31,0,0,0-.15-.27.31.31,0,0,0-.31,0Zm0,5,.15.29a.32.32,0,0,0,.17-.29Zm2.24-1.12h-.32a.32.32,0,0,0,.16.27.34.34,0,0,0,.31,0Zm0-5-.14-.29a.33.33,0,0,0-.18.29Zm6.72,1.68.15.29a.32.32,0,0,0,.17-.29Zm0-5h.32a.31.31,0,0,0-.15-.27.31.31,0,0,0-.31,0ZM39.62,51v16.8h.64V51ZM62.19,39.55l-22.4,11.2.29.58,22.4-11.2Zm.46,17.09V39.84H62v16.8ZM40.08,68.13l22.4-11.2-.29-.58-22.4,11.2ZM43.53,55v5h.64V55Zm6.9-3.65-6.72,3.36.29.58,6.72-3.36Zm.46,5.33v-5h-.64v5ZM44,60.29l6.72-3.36-.29-.58-6.72,3.36Zm9.13-4.77v-5h-.64v5Zm6.26-3.65-6.72,3.36.29.58,6.72-3.36Zm-.18-4.75v5h.64v-5ZM53,50.77l6.72-3.36-.29-.58-6.72,3.36Z"/>
        <path class="cls-8" d="M39.94,51V34.24L62.33,23v16.8Zm3.91-7.28v-5l6.72-3.36v5Zm9-9.52v5l6.72-3.36v-5Z"/>
        <path d="M39.94,34.24,39.79,34a.32.32,0,0,0-.17.29Zm0,16.8h-.32a.31.31,0,0,0,.15.27.31.31,0,0,0,.31,0ZM62.33,23h.32a.31.31,0,0,0-.15-.27.31.31,0,0,0-.31,0Zm0,16.8.15.29a.32.32,0,0,0,.17-.29ZM43.85,38.72l-.14-.29a.33.33,0,0,0-.18.29Zm0,5h-.32a.32.32,0,0,0,.16.27.31.31,0,0,0,.31,0Zm6.72-8.4h.32a.31.31,0,0,0-.15-.27.31.31,0,0,0-.31,0Zm0,5,.15.29a.32.32,0,0,0,.17-.29Zm2.24-1.12h-.32a.32.32,0,0,0,.16.27.31.31,0,0,0,.31,0Zm0-5L52.67,34a.33.33,0,0,0-.18.29Zm6.72,1.68.15.29a.32.32,0,0,0,.17-.29Zm0-5h.32a.31.31,0,0,0-.15-.27.31.31,0,0,0-.31,0ZM39.62,34.24V51h.64V34.24ZM62.19,22.75,39.79,34l.29.58,22.4-11.2Zm.46,17.09V23H62v16.8ZM40.08,51.33l22.4-11.2-.29-.58-22.4,11.2Zm3.45-12.61v5h.64v-5Zm6.9-3.65-6.72,3.36L44,39l6.72-3.36Zm.46,5.33v-5h-.64v5ZM44,44.05l6.72-3.36-.29-.58-6.72,3.36Zm9.13-4.77v-5h-.64v5Zm6.26-3.65L52.67,39l.29.58,6.72-3.36Zm-.18-4.75v5h.64v-5ZM53,34.53l6.72-3.36-.29-.58L52.67,34Z"/>
        <path class="cls-9" d="M39.94,51V34.24L17.54,23v16.8Z"/>
        <g class="cls-10">
          <path class="cls-6" d="M55.46,38.16,48.74,34.8l6.72-3.36,6.72,3.36Z"/>
          <path class="cls-6" d="M55.45,43.2v-5l6.72-3.36v5Z"/>
          <path class="cls-6" d="M55.45,43.2v-5L48.73,34.8v5Z"/>
        </g>
        <path class="cls-8" d="M39.94,67.84V51l-22.4-11.2v16.8l12.88,6.44V52.61l6.16,2.91V66.16h0ZM27.06,55.52v-5l-6.72-3.36v5Z"/>
        <path d="M39.94,51h.32a.33.33,0,0,0-.18-.29Zm0,16.8-.15.29a.31.31,0,0,0,.31,0,.32.32,0,0,0,.16-.27Zm-22.4-28,.14-.29a.31.31,0,0,0-.31,0,.31.31,0,0,0-.15.27Zm0,16.8h-.32a.32.32,0,0,0,.17.29Zm12.88,6.44-.15.29a.31.31,0,0,0,.31,0,.32.32,0,0,0,.16-.27Zm0-10.47.13-.29a.31.31,0,0,0-.31,0,.32.32,0,0,0-.14.27Zm6.16,2.91h.32a.33.33,0,0,0-.19-.29Zm0,10.64-.14.29a.31.31,0,0,0,.31,0,.33.33,0,0,0,.15-.27Zm0,0,.14-.28a.31.31,0,0,0-.42.14.32.32,0,0,0,.14.43Zm-9.5-15.67h.32a.33.33,0,0,0-.18-.29Zm0,5-.15.29a.31.31,0,0,0,.31,0,.32.32,0,0,0,.16-.27Zm-6.72-8.4.14-.29a.31.31,0,0,0-.31,0,.31.31,0,0,0-.15.27Zm0,5H20a.34.34,0,0,0,.17.29ZM39.62,51v16.8h.64V51ZM17.39,40.13l22.4,11.2.29-.58-22.4-11.2Zm.47,16.51V39.84h-.64v16.8Zm12.7,6.15L17.68,56.35l-.29.58,12.88,6.44ZM30.1,52.61V63.08h.64V52.61Zm6.61,2.62-6.16-2.91-.27.58,6.16,2.91Zm.19,10.93V55.52h-.64V66.16Zm-.47.28h0l.27-.58h0Zm3.65,1.11-3.37-1.68-.29.57,3.37,1.69ZM26.74,50.48v5h.64v-5Zm-6.55-3.07,6.72,3.36.29-.58-6.72-3.36Zm.47,4.75v-5H20v5Zm6.54,3.07-6.72-3.36-.29.58,6.72,3.36Z"/>
      </g>
      <g class="cls-4">
        <path class="cls-5" d="M39.94,67.84l-22.4-11.2,22.4-11.2,22.39,11.2Z"/>
        <path class="cls-6" d="M55.62,47.12,48.9,43.76l6.72-3.36,6.72,3.36Z"/>
        <path class="cls-6" d="M55.62,60V47.12l6.72-3.36V56.64Z"/>
        <path class="cls-6" d="M55.62,60V47.12L48.9,43.76V56.64Z"/>
        <path class="cls-7" d="M39.94,51l-22.4-11.2,22.4-11.2,22.39,11.2Z"/>
        <path class="cls-6" d="M24.26,30.32,17.54,27l6.72-3.36L31,27Z"/>
        <path class="cls-6" d="M24.25,43.2V30.32L31,27V39.84Z"/>
        <path class="cls-6" d="M24.25,43.2V30.32L17.53,27V39.84Z"/>
        <path class="cls-5" d="M39.94,34.24,17.54,23l22.4-11.2L62.33,23Z"/>
        <path class="cls-8" d="M39.94,67.84V51l22.39-11.2v16.8ZM43.85,60V55l6.72-3.36v5Zm9-9.52v5l6.72-3.36v-5Z"/>
        <path d="M39.94,51l-.15-.29a.32.32,0,0,0-.17.29Zm0,16.8h-.32a.31.31,0,0,0,.15.27.31.31,0,0,0,.31,0Zm22.39-28h.32a.31.31,0,0,0-.15-.27.31.31,0,0,0-.31,0Zm0,16.8.15.29a.32.32,0,0,0,.17-.29ZM43.85,55l-.14-.29a.33.33,0,0,0-.18.29Zm0,5h-.32a.32.32,0,0,0,.16.27.31.31,0,0,0,.31,0Zm6.72-8.4h.32a.31.31,0,0,0-.15-.27.31.31,0,0,0-.31,0Zm0,5,.15.29a.32.32,0,0,0,.17-.29Zm2.24-1.12h-.32a.32.32,0,0,0,.16.27.34.34,0,0,0,.31,0Zm0-5-.14-.29a.33.33,0,0,0-.18.29Zm6.72,1.68.15.29a.32.32,0,0,0,.17-.29Zm0-5h.32a.31.31,0,0,0-.15-.27.31.31,0,0,0-.31,0ZM39.62,51v16.8h.64V51ZM62.19,39.55l-22.4,11.2.29.58,22.4-11.2Zm.46,17.09V39.84H62v16.8ZM40.08,68.13l22.4-11.2-.29-.58-22.4,11.2ZM43.53,55v5h.64V55Zm6.9-3.65-6.72,3.36.29.58,6.72-3.36Zm.46,5.33v-5h-.64v5ZM44,60.29l6.72-3.36-.29-.58-6.72,3.36Zm9.13-4.77v-5h-.64v5Zm6.26-3.65-6.72,3.36.29.58,6.72-3.36Zm-.18-4.75v5h.64v-5ZM53,50.77l6.72-3.36-.29-.58-6.72,3.36Z"/>
        <path class="cls-8" d="M39.94,51V34.24L62.33,23v16.8Zm3.91-7.28v-5l6.72-3.36v5Zm9-9.52v5l6.72-3.36v-5Z"/>
        <path d="M39.94,34.24,39.79,34a.32.32,0,0,0-.17.29Zm0,16.8h-.32a.31.31,0,0,0,.15.27.31.31,0,0,0,.31,0ZM62.33,23h.32a.31.31,0,0,0-.15-.27.31.31,0,0,0-.31,0Zm0,16.8.15.29a.32.32,0,0,0,.17-.29ZM43.85,38.72l-.14-.29a.33.33,0,0,0-.18.29Zm0,5h-.32a.32.32,0,0,0,.16.27.31.31,0,0,0,.31,0Zm6.72-8.4h.32a.31.31,0,0,0-.15-.27.31.31,0,0,0-.31,0Zm0,5,.15.29a.32.32,0,0,0,.17-.29Zm2.24-1.12h-.32a.32.32,0,0,0,.16.27.31.31,0,0,0,.31,0Zm0-5L52.67,34a.33.33,0,0,0-.18.29Zm6.72,1.68.15.29a.32.32,0,0,0,.17-.29Zm0-5h.32a.31.31,0,0,0-.15-.27.31.31,0,0,0-.31,0ZM39.62,34.24V51h.64V34.24ZM62.19,22.75,39.79,34l.29.58,22.4-11.2Zm.46,17.09V23H62v16.8ZM40.08,51.33l22.4-11.2-.29-.58-22.4,11.2Zm3.45-12.61v5h.64v-5Zm6.9-3.65-6.72,3.36L44,39l6.72-3.36Zm.46,5.33v-5h-.64v5ZM44,44.05l6.72-3.36-.29-.58-6.72,3.36Zm9.13-4.77v-5h-.64v5Zm6.26-3.65L52.67,39l.29.58,6.72-3.36Zm-.18-4.75v5h.64v-5ZM53,34.53l6.72-3.36-.29-.58L52.67,34Z"/>
        <path class="cls-9" d="M39.94,51V34.24L17.54,23v16.8Z"/>
        <g class="cls-10">
          <path class="cls-6" d="M55.46,38.16,48.74,34.8l6.72-3.36,6.72,3.36Z"/>
          <path class="cls-6" d="M55.45,43.2v-5l6.72-3.36v5Z"/>
          <path class="cls-6" d="M55.45,43.2v-5L48.73,34.8v5Z"/>
        </g>
        <path class="cls-8" d="M39.94,67.84V51l-22.4-11.2v16.8l12.88,6.44V52.61l6.16,2.91V66.16h0ZM27.06,55.52v-5l-6.72-3.36v5Z"/>
        <path d="M39.94,51h.32a.33.33,0,0,0-.18-.29Zm0,16.8-.15.29a.31.31,0,0,0,.31,0,.32.32,0,0,0,.16-.27Zm-22.4-28,.14-.29a.31.31,0,0,0-.31,0,.31.31,0,0,0-.15.27Zm0,16.8h-.32a.32.32,0,0,0,.17.29Zm12.88,6.44-.15.29a.31.31,0,0,0,.31,0,.32.32,0,0,0,.16-.27Zm0-10.47.13-.29a.31.31,0,0,0-.31,0,.32.32,0,0,0-.14.27Zm6.16,2.91h.32a.33.33,0,0,0-.19-.29Zm0,10.64-.14.29a.31.31,0,0,0,.31,0,.33.33,0,0,0,.15-.27Zm0,0,.14-.28a.31.31,0,0,0-.42.14.32.32,0,0,0,.14.43Zm-9.5-15.67h.32a.33.33,0,0,0-.18-.29Zm0,5-.15.29a.31.31,0,0,0,.31,0,.32.32,0,0,0,.16-.27Zm-6.72-8.4.14-.29a.31.31,0,0,0-.31,0,.31.31,0,0,0-.15.27Zm0,5H20a.34.34,0,0,0,.17.29ZM39.62,51v16.8h.64V51ZM17.39,40.13l22.4,11.2.29-.58-22.4-11.2Zm.47,16.51V39.84h-.64v16.8Zm12.7,6.15L17.68,56.35l-.29.58,12.88,6.44ZM30.1,52.61V63.08h.64V52.61Zm6.61,2.62-6.16-2.91-.27.58,6.16,2.91Zm.19,10.93V55.52h-.64V66.16Zm-.47.28h0l.27-.58h0Zm3.65,1.11-3.37-1.68-.29.57,3.37,1.69ZM26.74,50.48v5h.64v-5Zm-6.55-3.07,6.72,3.36.29-.58-6.72-3.36Zm.47,4.75v-5H20v5Zm6.54,3.07-6.72-3.36-.29.58,6.72,3.36Z"/>
      </g>
      <path class="cls-11" d="M16,20.8H39V24H19.2V38.08h16v3.2h-16V59.2H16Z"/>
      <path class="cls-11" d="M16,20.8H39V24H19.2V38.08h16v3.2h-16V59.2H16Z"/>
      <path class="cls-12" d="M59.52,23.68h-3.2v14.4H41.92v3.2h14.4v14.4h3.2V41.28h14.4v-3.2H59.52Z"/>
      <path class="cls-12" d="M59.52,23.68h-3.2v14.4H41.92v3.2h14.4v14.4h3.2V41.28h14.4v-3.2H59.52Z"/>
    </g>
  </g>
</svg>
