<svg xmlns="http://www.w3.org/2000/svg" id="Слой_1" data-name="Слой 1" viewBox="0 0 320 461.32"><defs><style>.cls-10{fill:#002ea6}.cls-4{fill:#fff;fill-opacity:.8}.cls-5{fill:none;stroke:#002ea6;stroke-width:2.48px;stroke-opacity:.1}</style></defs><path fill="#284cc4" d="M0 0h320v461.32H0z"/><path fill="#002ea6" d="m1821.29-766.95 47.82-27.59a14.89 14.89 0 0 1 14.89 0l47.83 27.68a6.37 6.37 0 0 1 0 11L1884-728.21a14.87 14.87 0 0 1-14.88 0l-47.84-27.68a6.39 6.39 0 0 1 .01-11.06Z" opacity=".4" style="isolation:isolate" transform="translate(-1737.25 1086.47)"/><g opacity=".6"><path d="M1799-841.89v25.79a3.2 3.2 0 0 1-1.58 2.76l-18.07 10.52a2.12 2.12 0 0 1-3.19-1.84v-25.79a3.18 3.18 0 0 1 1.58-2.75l18.07-10.53a2.12 2.12 0 0 1 3.19 1.84Z" class="cls-4" transform="translate(-1737.25 1086.47)"/><path d="M1797.74-841.89v25.79a2 2 0 0 1-1 1.68l-18.07 10.53.62 1.07-.62-1.07a.89.89 0 0 1-1.33-.77v-25.79a2 2 0 0 1 1-1.68l18.07-10.53a.89.89 0 0 1 1.33.77Z" class="cls-5" transform="translate(-1737.25 1086.47)"/></g><g opacity=".2"><path d="M1833-898.75v21a3.2 3.2 0 0 1-1.59 2.76l-39.32 22.8a2.12 2.12 0 0 1-3.19-1.84v-21a3.17 3.17 0 0 1 1.59-2.76l39.32-22.8a2.13 2.13 0 0 1 3.19 1.84Z" class="cls-4" transform="translate(-1737.25 1086.47)"/><path d="M1831.75-898.75v21a2 2 0 0 1-1 1.68l-39.32 22.8a.88.88 0 0 1-1.33-.76v-21a2 2 0 0 1 1-1.69l39.32-22.8a.89.89 0 0 1 1.33.77Z" class="cls-5" transform="translate(-1737.25 1086.47)"/></g><path fill="#8fa2e0" d="M1907.38-950.68V-874a13.82 13.82 0 0 1-6.82 11.91l-71.75 42.18a10.62 10.62 0 0 1-16-9.16v-73.83a10.63 10.63 0 0 1 5.24-9.16l77.33-45.46a8 8 0 0 1 12 6.84Z" transform="translate(-1737.25 1086.47)"/><path d="M1906.14-950.68V-874a12.56 12.56 0 0 1-6.21 10.84L1828.18-821a9.38 9.38 0 0 1-14.18-8.1v-73.83a9.39 9.39 0 0 1 4.63-8.09l77.37-45.46a6.73 6.73 0 0 1 10.14 5.8Z" class="cls-5" transform="translate(-1737.25 1086.47)"/><path fill="#fff" fill-opacity=".3" d="m1808.57-781.77 60.07-34.57a14.86 14.86 0 0 1 14.86 0l60.07 34.68a6.38 6.38 0 0 1 0 11L1883.5-736a14.88 14.88 0 0 1-14.86 0l-60.08-34.68a6.38 6.38 0 0 1 .01-11.09Z" transform="translate(-1737.25 1086.47)"/><path fill="none" stroke="#fff" stroke-opacity=".1" stroke-width="2.66" d="m132.05 271.28-60.07 34.57a5.05 5.05 0 0 0 0 8.75l60.07 34.68a13.56 13.56 0 0 0 13.54 0l60.06-34.57a5.05 5.05 0 0 0 0-8.75l-60.08-34.68a13.54 13.54 0 0 0-13.52 0Z"/><path d="M1926.92-889a5.06 5.06 0 0 1 7 2.21 5.6 5.6 0 0 1-2 7.34l-.71.43-1.93 1.19-6.22 3.85c-3.18 2-8.33 5.05-12.21 7.42a9 9 0 0 1-9.08.17l-13.25-7.61v28.65l5.31 16.8 5.51 13.37a8.48 8.48 0 0 1 .66 3.18l.24 21.4c.26 2.92-.26 6.39-2.13 7.17-2.61 1.1-5.13-1.06-5.58-3.19l-4.69-22.91a8.33 8.33 0 0 0-.67-2l-8.18-17-4.28 1.78-6.71 29.49a9.8 9.8 0 0 1-.37 1.2l-11.33 29c-1.37 4.34-2.08 5.86-4.83 6.47s-5.58-1.06-5.11-4.25l6.72-31.77 6.52-41-1.6-29.76-9.81 8.92a8.44 8.44 0 0 0-2.5 4.11l-4.43 16.7c-.8 4.26-2.83 6.65-6.11 6.65s-4.25-4.52-3.51-8.17l4.59-22a8.41 8.41 0 0 1 1.37-3.14c2.31-3.23 8-11.11 11.63-15 4.6-5 6.38-8.56 16.47-12.05l13.29-3c4.51-.72 8.6 1 11.79 2.57l12.32 10.47a7.83 7.83 0 0 0 8.8 1.08c1.95-1.06 3.91-2.18 6.12-3.31l6.25-3.87 1.94-1.19.53-.33Z" class="cls-10" transform="translate(-1737.25 1086.47)"/><ellipse cx="1877.61" cy="-911.64" class="cls-10" rx="12.84" ry="13.87" transform="rotate(-30 3036.386 2873.357)"/><path fill="#fe975c" d="M1903.48-878.24a4.68 4.68 0 0 1 2.15-3.68c5.55-3.63 21-14.05 33.68-25.38a4.12 4.12 0 0 1 4-1 73.69 73.69 0 0 0 30.12 3.65 2.87 2.87 0 0 1 3.23 3l-1 38.11a29.9 29.9 0 0 1-1.28 8.34c-1.63 5.17-5.06 14.23-11 21.85-4.5 5.8-19 20.28-23.47 24.54a2.92 2.92 0 0 1-2.71.88c-4.27-1-17-4.31-24.78-10.27a24.45 24.45 0 0 1-9.36-13.36 23.32 23.32 0 0 1-.71-7.24Z" transform="translate(-1737.25 1086.47)"/><path fill="none" stroke="#fff" stroke-linecap="round" stroke-width="11.16" d="m1928.63-829.65 37.87 19.81" opacity=".6" style="isolation:isolate" transform="translate(-1737.25 1086.47)"/><path fill="none" stroke="#fff" stroke-linecap="round" stroke-width="11.16" d="m1995.05-817.43 22.31 11.69" opacity=".2" style="isolation:isolate" transform="translate(-1737.25 1086.47)"/><path fill="none" stroke="#fff" stroke-linecap="round" stroke-width="11.16" d="m210.51 216.97 62.69 32.94"/></svg>