<svg id="Слой_1" data-name="Слой 1" xmlns="http://www.w3.org/2000/svg" xmlns:xlink="http://www.w3.org/1999/xlink" viewBox="0 0 320 409.58"><defs><linearGradient id="Безымянный_градиент_6" data-name="Безымянный градиент 6" x1="205.3" y1="133.71" x2="230.9" y2="141.98" gradientTransform="matrix(1 0 0 -1 0 419.89)" gradientUnits="userSpaceOnUse"><stop offset="0" stop-color="#08a592"/><stop offset="1" stop-color="#c4c4c4" stop-opacity="0"/></linearGradient><linearGradient id="Безымянный_градиент_6-2" x1="169.73" y1="145.51" x2="198.14" y2="162.1" xlink:href="#Безымянный_градиент_6"/><linearGradient id="Безымянный_градиент_9" data-name="Безымянный градиент 9" x1="184.5" y1="193.33" x2="179.51" y2="147.28" gradientTransform="matrix(1 0 0 -1 0 419.89)" gradientUnits="userSpaceOnUse"><stop offset="0" stop-color="#002ea6"/><stop offset="1" stop-color="#002074"/></linearGradient><linearGradient id="Безымянный_градиент_9-2" x1="176.58" y1="195.32" x2="200.61" y2="190.78" xlink:href="#Безымянный_градиент_9"/><linearGradient id="Безымянный_градиент_9-3" x1="-144.46" y1="434.92" x2="-145.08" y2="422.64" gradientTransform="rotate(180 19.885 319.37)" xlink:href="#Безымянный_градиент_9"/><style>.cls-2{fill:#1840b8}.cls-6{fill:none}.cls-4{opacity:.2}.cls-5{fill:#fff}.cls-6{stroke:#002ea6;stroke-opacity:.1;stroke-width:2.24px}.cls-12{fill:#002ea6}</style></defs><path style="fill:#284cc4" d="M0 0h320v409.58H0z"/><path class="cls-2" d="M246.15 96.26v138.52a9 9 0 0 1-4.44 7.77l-168.26 99a6.93 6.93 0 0 1-10.45-6V202.66a6.94 6.94 0 0 1 3.32-5.92L238.24 91.82a5.2 5.2 0 0 1 7.91 4.44Z"/><path d="M245 96.26v138.52a7.89 7.89 0 0 1-3.89 6.8l-168.26 99a5.81 5.81 0 0 1-8.76-5V202.66a5.82 5.82 0 0 1 2.78-5L238.82 92.78a4.08 4.08 0 0 1 6.18 3.48Z" style="stroke:#1840b8;stroke-width:2.24px;fill:none"/><g class="cls-4"><path class="cls-5" d="M233.17 164.85V172a2.9 2.9 0 0 1-1.44 2.5l-12 6.95a1.92 1.92 0 0 1-2.88-1.66v-7.18a2.87 2.87 0 0 1 1.44-2.49l12-7a1.92 1.92 0 0 1 2.88 1.73Z"/><path class="cls-6" d="M232.05 164.85V172a1.76 1.76 0 0 1-.88 1.52l-12 7a.8.8 0 0 1-1.2-.69v-7.18a1.74 1.74 0 0 1 .88-1.52l12-7a.8.8 0 0 1 1.2.72Z"/></g><g class="cls-4"><path class="cls-5" d="M256.24 200.43v12.31a2.87 2.87 0 0 1-1.43 2.49l-18.75 10.93a1.92 1.92 0 0 1-2.89-1.66v-12.31a2.91 2.91 0 0 1 1.43-2.49l18.75-10.93a1.92 1.92 0 0 1 2.89 1.66Z"/><path class="cls-6" d="M255.12 200.43v12.31a1.75 1.75 0 0 1-.87 1.52l-18.75 10.93a.8.8 0 0 1-1.21-.69v-12.31a1.78 1.78 0 0 1 .88-1.52l18.75-10.93a.8.8 0 0 1 1.2.69Z"/></g><g class="cls-4"><path class="cls-5" d="M106.74 227.36v70.56a2.88 2.88 0 0 1-1.42 2.49L77 317a1.93 1.93 0 0 1-2.9-1.66v-70.55a2.88 2.88 0 0 1 1.43-2.49l28.37-16.6a1.92 1.92 0 0 1 2.84 1.66Z"/><path class="cls-6" d="M105.62 227.36v70.56a1.75 1.75 0 0 1-.87 1.52L76.38 316a.8.8 0 0 1-1.2-.69v-70.52a1.75 1.75 0 0 1 .87-1.52l28.37-16.6a.79.79 0 0 1 1.2.69Z"/></g><g class="cls-4"><path class="cls-5" d="M80.78 288.87v7.18a2.87 2.87 0 0 1-1.44 2.49l-12 7a1.93 1.93 0 0 1-2.89-1.67v-7.17a2.9 2.9 0 0 1 1.44-2.5l12-7a1.92 1.92 0 0 1 2.89 1.67Z"/><path class="cls-6" d="M79.66 288.87v7.18a1.75 1.75 0 0 1-.88 1.52l-12 6.95a.8.8 0 0 1-1.2-.69v-7.17a1.78 1.78 0 0 1 .88-1.53l12-6.95a.8.8 0 0 1 1.2.69Z"/></g><g class="cls-4"><path class="cls-5" d="M68.29 277.81V285a2.87 2.87 0 0 1-1.44 2.49l-12 7a1.93 1.93 0 0 1-2.89-1.66v-7.23a2.9 2.9 0 0 1 1.44-2.5l12-7a1.93 1.93 0 0 1 2.89 1.71Z"/><path class="cls-6" d="M67.16 277.81V285a1.74 1.74 0 0 1-.88 1.52l-12 7a.81.81 0 0 1-1.21-.69v-7.23a1.76 1.76 0 0 1 .88-1.52l12-7a.8.8 0 0 1 1.21.73Z"/></g><g class="cls-4"><path class="cls-5" d="M114.92 232.63v7.17a2.89 2.89 0 0 1-1.45 2.5l-12 6.95a1.93 1.93 0 0 1-2.89-1.66v-7.18a2.87 2.87 0 0 1 1.44-2.49l12-7a1.93 1.93 0 0 1 2.9 1.71Z"/><path class="cls-6" d="M113.79 232.63v7.17a1.76 1.76 0 0 1-.88 1.53l-12 6.95a.8.8 0 0 1-1.2-.69v-7.18a1.77 1.77 0 0 1 .88-1.52l12-7a.8.8 0 0 1 1.2.74Z"/></g><path d="M194.28 146.47v117.38a12.55 12.55 0 0 1-6.28 10.88l-53 30.6a5.38 5.38 0 0 1-8.08-4.66V183.29a12.59 12.59 0 0 1 6.29-10.89l53-30.6a5.39 5.39 0 0 1 8.07 4.67Z" style="opacity:.4;isolation:isolate;fill:#002ea6"/><path class="cls-5" d="M202.36 151.86v117.38a12.55 12.55 0 0 1-6.28 10.88l-53 30.6a5.4 5.4 0 0 1-8.09-4.67V188.68a12.57 12.57 0 0 1 6.29-10.89l53-30.6a5.39 5.39 0 0 1 8.08 4.67Z"/><path class="cls-6" d="M201.24 151.86v117.38a11.44 11.44 0 0 1-5.72 9.91l-53 30.6a4.27 4.27 0 0 1-6.4-3.7V188.68a11.46 11.46 0 0 1 5.72-9.92l53-30.6a4.27 4.27 0 0 1 6.4 3.7Z"/><path class="cls-2" d="M178.7 130.93V132a12.58 12.58 0 0 1-6.3 10.9l-25.14 14.46a5.39 5.39 0 0 1-8.07-4.67v-1.1a12.56 12.56 0 0 1 6.3-10.89l25.14-14.46a5.38 5.38 0 0 1 8.07 4.69Z"/><path d="M184.47 134.29v1.09a12.57 12.57 0 0 1-6.3 10.9L153 160.74a5.38 5.38 0 0 1-8.07-4.67V155a12.57 12.57 0 0 1 6.3-10.9l25.14-14.46a5.38 5.38 0 0 1 8.1 4.65Z" style="fill:#25db9a"/><path d="m203.06 314.48-65.79-38v-32.29L230.49 298l11-6.64 10.88 40-63.3-8.41Z" style="fill-rule:evenodd;fill:#25db9a"/><path d="m223.07 293.71-29.8-.24.48-16.83Z" style="fill:url(#Безымянный_градиент_6)"/><path d="m151.45 274.26 39.43.92-21.41-12.48-.24-.24-18.5 9.88Z" style="fill:url(#Безымянный_градиент_6-2)"/><path class="cls-12" d="m166.64 263.22 2.17-15.46 10.78 1.34-2.05 14.4a9 9 0 0 1-7.32 7.58l-17.89 3.16a1.8 1.8 0 0 1-1.94-1l-.31-.66a1.8 1.8 0 0 1 .9-2.4Z"/><path d="M163.57 245.23c1.09-8.14 3.2-23.08 4.89-29.71l16.62 2-6.51 24.7 13.43 13.3a8.92 8.92 0 0 1 2.66 5.88l1.69 29.65a2.24 2.24 0 0 1-2.24 2.37h-.78a2.69 2.69 0 0 1-2.58-1.92l-8.41-27.94-14.85-9.73a8.89 8.89 0 0 1-3.92-8.6Z" style="fill:url(#Безымянный_градиент_9)"/><path d="m201 236.65 9.82-9a3 3 0 0 0 .2-4.28A3 3 0 0 0 207 223c-4.24 3.33-10.63 8.32-12.82 7.73-2.62-.7-7-12.05-9.75-14.52-4.7-4.26-11-7.18-11.42 1.83-.29 6.08 6.6 14.15 13.42 19.73 4.33 3.55 10.47 2.69 14.57-1.12Z" style="fill:url(#Безымянный_градиент_9-2)"/><path class="cls-12" d="m151.65 233.27 5.54 10.58a2.85 2.85 0 0 0 3.82 1.22 2.82 2.82 0 0 0 1.33-3.62c-2-4.65-5-11.65-3.9-13.49 1.28-2.21 10-3.26 14.2-3.52 5-3.23 12.61-12.54 2.45-12.58-5.5 0-13.92 3.26-20.45 7.31-4.79 2.97-5.64 9.11-2.99 14.1Z"/><ellipse cx="184.11" cy="201.53" rx="9.54" ry="10.3" transform="rotate(-30 184.119 201.535)" style="fill:url(#Безымянный_градиент_9-3)"/><g class="cls-4"><path class="cls-5" d="M242.54 204.28v5.81a2.86 2.86 0 0 1-1.43 2.49L231 218.47a1.92 1.92 0 0 1-2.89-1.66V211a2.91 2.91 0 0 1 1.43-2.49l10.1-5.89a1.93 1.93 0 0 1 2.9 1.66Z"/><path class="cls-6" d="M241.42 204.28v5.81a1.75 1.75 0 0 1-.87 1.52l-10.1 5.89a.8.8 0 0 1-1.21-.69V211a1.78 1.78 0 0 1 .88-1.52l10.1-5.89a.8.8 0 0 1 1.2.69Z"/></g></svg>