<svg id="Слой_1" data-name="Слой 1" xmlns="http://www.w3.org/2000/svg" viewBox="0 0 80 80">
  <defs>
    <style>
      .cls-1 {
        fill: #872a77;
      }

      .cls-2, .cls-3 {
        fill: #fff;
      }

      .cls-2 {
        fill-rule: evenodd;
      }

      .cls-4 {
        fill: none;
        stroke: #b5b8c6;
        stroke-width: 2.56px;
      }
    </style>
  </defs>
  <title>fenix-server-main-page</title>
  <path class="cls-1" d="M0,8A8,8,0,0,1,8,0H72a8,8,0,0,1,8,8V72a8,8,0,0,1-8,8H8a8,8,0,0,1-8-8Z"/>
  <path class="cls-2" d="M17.25,20.8h23V24H20.45V38.08h16v3.2h-16V59.2h-3.2V20.8Z"/>
  <path class="cls-3" d="M55.1,59.26a22,22,0,0,1-6.46-.94,14.16,14.16,0,0,1-4.77-2.47l1.67-2.94a14.76,14.76,0,0,0,4.36,2.26,17.8,17.8,0,0,0,5.46.84,10.49,10.49,0,0,0,5.57-1.16,3.8,3.8,0,0,0,1.83-3.36,2.93,2.93,0,0,0-1-2.36,6.17,6.17,0,0,0-2.52-1.31,33.07,33.07,0,0,0-4-.9,51.22,51.22,0,0,1-5.41-1.25,8.38,8.38,0,0,1-3.52-2.26,6.27,6.27,0,0,1-1.42-4.36,6.84,6.84,0,0,1,2.89-5.67q2.88-2.21,8-2.21a20.19,20.19,0,0,1,5.36.74,14.53,14.53,0,0,1,4.41,1.84l-1.63,3a14,14,0,0,0-8.14-2.36,9.53,9.53,0,0,0-5.4,1.26,3.87,3.87,0,0,0-1.79,3.3,3.33,3.33,0,0,0,1,2.53,6.74,6.74,0,0,0,2.57,1.41c1,.28,2.42.58,4.2.9A48.86,48.86,0,0,1,61.66,45a7.81,7.81,0,0,1,3.41,2.16,5.89,5.89,0,0,1,1.42,4.2,6.72,6.72,0,0,1-3,5.77Q60.45,59.26,55.1,59.26Z"/>
  <rect class="cls-4" x="1.28" y="1.28" width="77.44" height="77.44" rx="6.72"/>
</svg>
