<svg id="Слой_1" data-name="Слой 1" xmlns="http://www.w3.org/2000/svg" viewBox="0 0 69.75 79.62">
  <defs>
    <style>
      .cls-1 {
        fill: #af3638;
        fill-rule: evenodd;
      }
    </style>
  </defs>
  <title>firerisks-main-page</title>
  <path class="cls-1" d="M41.5.59a3,3,0,0,0-3,0L6.62,19a3,3,0,0,0-1.5,2.6V58.4A3,3,0,0,0,6.62,61L38.5,79.41a3,3,0,0,0,3,0L73.38,61a3,3,0,0,0,1.5-2.6V21.6a3,3,0,0,0-1.5-2.6Zm6.88,32.22C48.14,39,45.74,43.2,43.56,47c-2.41,4.2-4.56,8-3.24,13.51,0,0-13.66-1.42-15.17-14-.49-6.92,3-11.08,6.45-15.11s7-8.23,5.7-15.11C46.87,20.72,48.57,27.77,48.38,32.81Zm-4.74,27.7c.37-.79,1.55-1.63,3-2.69,4.94-3.54,13.17-9.44,4.92-23.41C51,39.76,48.87,43.53,46.88,47,44.47,51.2,42.32,55,43.64,60.51Z" transform="translate(-5.12 -0.19)"/>
</svg>
