<svg width="80" height="80" viewBox="0 0 80 80" fill="none" xmlns="http://www.w3.org/2000/svg">
<path d="M63.1693 41.6896C63.7154 39.4571 64.0046 37.1239 64.0046 34.7232C64.0046 18.5857 50.9228 5.5036 34.7853 5.5036C18.6477 5.5036 5.56567 18.5857 5.56567 34.7232C5.56567 46.7093 12.7826 57.0094 23.1081 61.5162" stroke="#111826" stroke-width="3.42857" stroke-linecap="round" stroke-linejoin="round"/>
<path d="M5.56567 34.7227H64.0046" stroke="#111826" stroke-width="3.42857" stroke-linecap="round" stroke-linejoin="round"/>
<path d="M26.1052 48.2095C24.6475 43.8783 23.7763 39.343 23.5376 34.7231C24.0896 24.0378 28.0254 13.8048 34.7759 5.50354C41.5265 13.8048 45.4622 24.0378 46.0142 34.7231C45.917 36.606 45.7146 38.4749 45.4104 40.3215" stroke="#111826" stroke-width="3.42857" stroke-linecap="round" stroke-linejoin="round"/>
<path d="M53.0469 46.2518L74.4315 55.5172L53.0469 64.7828L31.6621 55.5172L53.0469 46.2518Z" stroke="#002EA6" stroke-width="3.42857" stroke-linecap="round" stroke-linejoin="round"/>
<path d="M41.364 59.7437L41.3852 69.8251C41.3852 69.8251 44.9158 74.497 53.045 74.497C61.1739 74.497 64.7233 69.8251 64.7233 69.8251L64.7212 59.7437" stroke="#002EA6" stroke-width="3.42857" stroke-linecap="round" stroke-linejoin="round"/>
<path d="M32 72.2986V56" stroke="#002EA6" stroke-width="3.42857" stroke-linecap="round" stroke-linejoin="round"/>
</svg>
